STARTFONT 2.1
FONT -FreeType-Logisoso-Medium-R-Normal--50-360-100-100-M-60-ISO10646-1
SIZE 36 100 100
FONTBOUNDINGBOX 135 51 -4 -9
COMMENT "Converted from OpenType font "Logisoso.ttf" by "otf2bdf 3.0"."
COMMENT ""
STARTPROPERTIES 19
FOUNDRY "FreeType"
FAMILY_NAME "Logisoso"
WEIGHT_NAME "Medium"
SLANT "R"
SETWIDTH_NAME "Normal"
ADD_STYLE_NAME ""
PIXEL_SIZE 50
POINT_SIZE 360
RESOLUTION_X 100
RESOLUTION_Y 100
SPACING "M"
AVERAGE_WIDTH 60
CHARSET_REGISTRY "ISO10646"
CHARSET_ENCODING "1"
FONT_ASCENT 42
FONT_DESCENT 8
COPYRIGHT "Created by Mathieu Gabiot with FontForge 2.0 (http://fontforge.sf.net) - Brussels - 2009"
_OTF_FONTFILE "Logisoso.ttf"
_OTF_PSNAME "Logisoso"
ENDPROPERTIES
CHARS 527
STARTCHAR $001E
ENCODING 30
SWIDTH 460 0
DWIDTH 23 0
BBX 0 0 0 0
BITMAP
ENDCHAR
STARTCHAR $001F
ENCODING 31
SWIDTH 460 0
DWIDTH 23 0
BBX 0 0 0 0
BITMAP
ENDCHAR
STARTCHAR $0020
ENCODING 32
SWIDTH 460 0
DWIDTH 23 0
BBX 0 0 0 0
BITMAP
ENDCHAR
STARTCHAR $0021
ENCODING 33
SWIDTH 260 0
DWIDTH 13 0
BBX 5 35 4 0
BITMAP
F8
F8
F8
F8
F8
F8
F8
F8
F8
F8
F8
F8
F8
F8
F8
F8
F8
F8
F8
F8
F8
F8
F8
F8
F8
F8
F8
F8
00
00
00
70
F8
F0
70
ENDCHAR
STARTCHAR $0022
ENCODING 34
SWIDTH 460 0
DWIDTH 23 0
BBX 10 6 6 29
BITMAP
7180
7BC0
FBC0
73C0
3180
2100
ENDCHAR
STARTCHAR $0023
ENCODING 35
SWIDTH 460 0
DWIDTH 23 0
BBX 18 35 2 0
BITMAP
03E7C0
03E7C0
03E7C0
03C7C0
07C780
07C780
07CF80
07CF80
07CF80
078F80
078F80
7FFFC0
FFFFC0
FFFFC0
FFFFC0
FFFFC0
0F1F00
1F1E00
1F1E00
1F3E00
FFFFC0
FFFFC0
FFFFC0
FFFFC0
3E3C00
3E3C00
3E7C00
3E7C00
3E7C00
3C7C00
7C7800
7C7800
7CF800
7CF800
7CF800
ENDCHAR
STARTCHAR $0024
ENCODING 36
SWIDTH 460 0
DWIDTH 23 0
BBX 18 44 2 -5
BITMAP
01E000
01E000
01E000
01E000
03F000
0FFC00
1FFE00
3FFF00
3FBF80
7C0F80
7C07C0
7807C0
F803C0
780000
780000
7C0000
7E0000
3F0000
1F8000
0FC000
07E000
03F800
01FC00
00FE00
007F00
003F80
000F80
0007C0
0007C0
0003C0
F803C0
7807C0
7C07C0
7C0F80
3F3F80
3FFF00
1FFE00
0FFC00
03F000
01E000
01E000
01E000
01E000
01E000
ENDCHAR
STARTCHAR $0025
ENCODING 37
SWIDTH 460 0
DWIDTH 23 0
BBX 18 35 2 0
BITMAP
1E07C0
7F07C0
7F8780
F78F80
F38F00
FF8F00
7F9F00
3F1E00
1C3E00
003E00
003C00
007C00
007800
007800
00F800
00F000
01F000
01F000
01E000
03E000
03C000
03C000
07C000
078000
0F8000
0F8000
0F0000
1F1F00
1E3F80
1E7FC0
3E79C0
3C79C0
7C7FC0
7C3F80
781F00
ENDCHAR
STARTCHAR $0026
ENCODING 38
SWIDTH 460 0
DWIDTH 23 0
BBX 18 35 2 0
BITMAP
07F800
0FFC00
1FFE00
3FFF00
3E1F80
3C0F80
3C0F80
7C0000
3C0000
3E0000
3E0000
1F0000
1F0000
1F0000
3F8000
7F8000
7FC000
7FC000
FBE000
FBE3C0
F9F3C0
F9F3C0
F8F3C0
F8FBC0
F8FBC0
F87FC0
F87FC0
F83FC0
783FC0
7C1F80
3FFF80
3FFF80
1FFF80
0FFF80
03F7C0
ENDCHAR
STARTCHAR $0027
ENCODING 39
SWIDTH 260 0
DWIDTH 13 0
BBX 5 6 4 29
BITMAP
70
F0
F8
70
30
20
ENDCHAR
STARTCHAR $0028
ENCODING 40
SWIDTH 460 0
DWIDTH 23 0
BBX 9 35 6 0
BITMAP
0400
0700
0F80
0F80
1F00
1F00
1E00
3E00
3C00
3C00
7C00
7800
7800
7800
7800
F800
F800
F800
F800
7800
7800
7800
7800
7800
7C00
3C00
3C00
3E00
3E00
1F00
1F00
0F80
0F80
0780
0600
ENDCHAR
STARTCHAR $0029
ENCODING 41
SWIDTH 460 0
DWIDTH 23 0
BBX 9 35 7 0
BITMAP
1000
3800
F800
7C00
7C00
3E00
3E00
1E00
1F00
0F00
0F00
0F00
0F80
0F80
0780
0780
0780
0780
0780
0780
0780
0F80
0F80
0F00
0F00
0F00
1F00
1E00
3E00
3E00
7C00
7C00
F800
7800
1000
ENDCHAR
STARTCHAR $002A
ENCODING 42
SWIDTH 460 0
DWIDTH 23 0
BBX 15 16 4 24
BITMAP
0380
0380
0380
639C
FBBC
FFFC
3FF8
1FE0
1FF0
7FFC
FFFE
F3BC
4388
0380
0380
0380
ENDCHAR
STARTCHAR $002B
ENCODING 43
SWIDTH 460 0
DWIDTH 23 0
BBX 13 13 5 7
BITMAP
0F00
0F00
0F00
0F00
FFF8
FFF8
FFF8
FFF8
FFF8
0F00
0F00
0F00
0F00
ENDCHAR
STARTCHAR $002C
ENCODING 44
SWIDTH 260 0
DWIDTH 13 0
BBX 5 6 4 -2
BITMAP
70
F8
F8
70
30
30
ENDCHAR
STARTCHAR $002D
ENCODING 45
SWIDTH 460 0
DWIDTH 23 0
BBX 13 5 5 11
BITMAP
FFF8
FFF8
FFF8
FFF8
FFF8
ENDCHAR
STARTCHAR $002E
ENCODING 46
SWIDTH 260 0
DWIDTH 13 0
BBX 5 4 4 0
BITMAP
70
F8
F8
70
ENDCHAR
STARTCHAR $002F
ENCODING 47
SWIDTH 460 0
DWIDTH 23 0
BBX 17 35 3 0
BITMAP
000F80
001F00
001F00
001F00
003E00
003E00
003E00
007C00
007C00
007800
00F800
00F800
00F000
01F000
01F000
01E000
03E000
03E000
03C000
07C000
07C000
0F8000
0F8000
0F8000
1F0000
1F0000
1E0000
3E0000
3E0000
3C0000
7C0000
7C0000
780000
F80000
F80000
ENDCHAR
STARTCHAR $0030
ENCODING 48
SWIDTH 460 0
DWIDTH 23 0
BBX 18 35 2 0
BITMAP
01F000
0FFC00
1FFE00
3FFF00
3FFF80
7C0F80
7C07C0
7807C0
F803C0
F803C0
F803C0
F803C0
F803C0
F803C0
F803C0
F803C0
F803C0
F803C0
F803C0
F803C0
F803C0
F803C0
F803C0
F803C0
F803C0
F803C0
F803C0
7807C0
7807C0
7C0F80
3FFF80
3FFF00
1FFE00
0FFC00
03F000
ENDCHAR
STARTCHAR $0031
ENCODING 49
SWIDTH 460 0
DWIDTH 23 0
BBX 9 35 7 0
BITMAP
0780
0780
0F80
0F80
1F80
7F80
FF80
FF80
FF80
E780
0780
0780
0780
0780
0780
0780
0780
0780
0780
0780
0780
0780
0780
0780
0780
0780
0780
0780
0780
0780
0780
0780
0780
0780
0780
ENDCHAR
STARTCHAR $0032
ENCODING 50
SWIDTH 460 0
DWIDTH 23 0
BBX 17 35 3 0
BITMAP
03E000
0FF800
3FFC00
7FFE00
7E7F00
F81F00
F80F80
F00F80
F00780
F00780
F00F80
F00F80
001F00
003F00
003E00
007C00
007C00
00F800
01F000
01F000
03E000
07E000
07C000
0F8000
1F8000
1F0000
3E0000
3E0000
7C0000
F80000
F80000
FFFF80
FFFF80
FFFF80
FFFF80
ENDCHAR
STARTCHAR $0033
ENCODING 51
SWIDTH 460 0
DWIDTH 23 0
BBX 17 35 3 0
BITMAP
FFFF80
FFFF80
FFFF80
FFFF80
000F80
001F00
003F00
003E00
007C00
00FC00
00F800
01F000
03F000
03E000
03F800
03FC00
03FE00
03FF00
001F00
000F80
000F80
000780
000780
000780
000780
000780
000780
000F80
300F80
F81F00
FE7F00
7FFE00
3FFC00
1FF800
07E000
ENDCHAR
STARTCHAR $0034
ENCODING 52
SWIDTH 460 0
DWIDTH 23 0
BBX 18 35 2 0
BITMAP
03E000
03E000
03C000
03C000
07C000
07C000
078000
078000
0F8000
0F8000
0F0000
0F0000
1F0000
1F0000
1E0000
1E0000
3E0000
3E7800
3C7C00
3C7C00
7C7C00
7C7C00
787C00
787C00
FFFFC0
FFFFC0
FFFFC0
FFFFC0
007C00
007C00
007C00
007C00
007C00
007C00
007C00
ENDCHAR
STARTCHAR $0035
ENCODING 53
SWIDTH 460 0
DWIDTH 23 0
BBX 18 35 2 0
BITMAP
FFFFC0
FFFFC0
FFFFC0
FFFFC0
F80000
F80000
F80000
F80000
F80000
F80000
F80000
F9F000
FFFC00
FFFE00
FFFF00
FFFF80
FE0F80
FC07C0
F807C0
F803C0
0003C0
0003C0
0003C0
0003C0
0003C0
0003C0
7803C0
7807C0
7C07C0
7C0F80
3F3F80
3FFF00
1FFE00
0FFC00
03F000
ENDCHAR
STARTCHAR $0036
ENCODING 54
SWIDTH 460 0
DWIDTH 23 0
BBX 18 35 2 0
BITMAP
03F000
0FFC00
1FFE00
3FFF00
3FFF80
7C0F80
7807C0
7807C0
F803C0
F80000
F80000
F80000
F80000
F9F000
FFFC00
FFFE00
FFFF00
FFFF80
FC0F80
FC07C0
F807C0
F803C0
F803C0
F803C0
F803C0
F803C0
F807C0
7807C0
7807C0
7C0F80
3F3F80
3FFF00
1FFE00
0FFC00
03F000
ENDCHAR
STARTCHAR $0037
ENCODING 55
SWIDTH 460 0
DWIDTH 23 0
BBX 18 35 2 0
BITMAP
FFFFC0
FFFFC0
FFFFC0
FFFFC0
F807C0
F807C0
F80F80
F80F80
F80F80
000F80
001F00
001F00
001F00
001F00
003E00
003E00
003E00
007E00
007C00
007C00
007C00
00F800
00F800
00F800
00F800
01F000
01F000
01F000
01F000
03E000
03E000
03E000
03E000
07C000
07C000
ENDCHAR
STARTCHAR $0038
ENCODING 56
SWIDTH 460 0
DWIDTH 23 0
BBX 17 35 3 0
BITMAP
03E000
1FF800
3FFC00
7FFE00
7FFF00
F81F00
F80F80
F00F80
F00780
F00780
F00780
F00780
F00F80
F80F80
FC1F00
7FFF00
3FFE00
3FFC00
3FFE00
7FFF00
FC1F00
F80F80
F00F80
F00780
F00780
F00780
F00780
F00F80
F80F80
F81F00
7FFF00
7FFE00
3FFC00
1FF800
07E000
ENDCHAR
STARTCHAR $0039
ENCODING 57
SWIDTH 460 0
DWIDTH 23 0
BBX 18 35 2 0
BITMAP
01F000
0FFC00
1FFE00
3FFF00
3FFF80
7C0F80
7C07C0
7807C0
F803C0
F803C0
F803C0
F803C0
F803C0
7803C0
7807C0
7C07C0
7C0FC0
3FFFC0
3FFFC0
1FFFC0
0FFFC0
01F3C0
0003C0
0003C0
0003C0
0003C0
7803C0
7807C0
7C07C0
7C0F80
3F3F80
3FFF00
1FFE00
0FFC00
03F000
ENDCHAR
STARTCHAR $003A
ENCODING 58
SWIDTH 260 0
DWIDTH 13 0
BBX 5 20 4 4
BITMAP
70
F8
F8
70
00
00
00
00
00
00
00
00
00
00
00
70
F8
F8
70
20
ENDCHAR
STARTCHAR $003B
ENCODING 59
SWIDTH 260 0
DWIDTH 13 0
BBX 5 22 4 2
BITMAP
70
F8
F8
70
00
00
00
00
00
00
00
00
00
00
00
70
F8
F8
70
30
30
30
ENDCHAR
STARTCHAR $003C
ENCODING 60
SWIDTH 460 0
DWIDTH 23 0
BBX 11 21 6 6
BITMAP
0020
00E0
01E0
03E0
0FC0
1F80
3F00
7C00
F800
F000
E000
F000
F800
7E00
3F00
1F80
07C0
03E0
01E0
00E0
0020
ENDCHAR
STARTCHAR $003D
ENCODING 61
SWIDTH 460 0
DWIDTH 23 0
BBX 16 13 3 5
BITMAP
FFFF
FFFF
FFFF
FFFF
7FFF
0000
0000
0000
7FFF
FFFF
FFFF
FFFF
FFFF
ENDCHAR
STARTCHAR $003E
ENCODING 62
SWIDTH 460 0
DWIDTH 23 0
BBX 11 21 6 6
BITMAP
8000
C000
E000
F800
FC00
3E00
1F00
0FC0
07E0
01E0
00E0
01E0
07E0
0FC0
1F80
3E00
FC00
F800
E000
C000
8000
ENDCHAR
STARTCHAR $003F
ENCODING 63
SWIDTH 460 0
DWIDTH 23 0
BBX 18 35 2 0
BITMAP
07F800
0FFE00
1FFF00
3FFF80
7E1F80
7C07C0
7807C0
F803C0
0003C0
0003C0
0007C0
000FC0
001F80
003F80
007F00
007E00
00FC00
01F800
01F000
01E000
01E000
01E000
01E000
01E000
01E000
01E000
01E000
01E000
000000
000000
000000
01E000
01E000
01E000
00C000
ENDCHAR
STARTCHAR $0040
ENCODING 64
SWIDTH 720 0
DWIDTH 36 0
BBX 31 42 2 -9
BITMAP
001FF800
007FFE00
01FFFF80
03FFFFC0
07F83FE0
0FE007F0
1F8001F8
3F0000F8
3E00007C
7C07FE7C
7C1FFE3E
783FFE3E
783FFE1E
F87E7E1E
F87C3E1E
F87C3E1E
F87C3E1E
F87C3E1E
F87C3E1E
F87C3E1E
F87C3E1E
F87C3E1E
F87C3E1E
F87C3E1E
F87C3E1E
F87C3E1E
F87C3E1E
F87C3E1E
783FFF7E
783FFFFE
7C1FFFFC
7C0FF7F8
3E07E3E0
3E000000
1F000000
1FC00000
0FE00000
07FFFFE0
03FFFFE0
00FFFFE0
007FFFE0
0007FFE0
ENDCHAR
STARTCHAR $0041
ENCODING 65
SWIDTH 460 0
DWIDTH 23 0
BBX 17 35 3 0
BITMAP
03E000
03E000
03E000
07E000
07E000
07E000
07F000
07F000
07F000
0FF000
0FF000
0FF800
0FF800
0F7800
1F7800
1F7800
1E7C00
1E7C00
1E7C00
3E3C00
3E3C00
3C3C00
3C3E00
3C3E00
7FFE00
7FFE00
7FFE00
7FFF00
7FFF00
780F00
F80F00
F80F00
F00F80
F00F80
F00F80
ENDCHAR
STARTCHAR $0042
ENCODING 66
SWIDTH 460 0
DWIDTH 23 0
BBX 18 35 2 0
BITMAP
FFE000
FFF800
FFFC00
FFFE00
F87F00
F81F80
F80F80
F80780
F80780
F80780
F80780
F80F80
F80F80
F83F00
FFFF00
FFFE00
FFFC00
FFFE00
F8FF00
F81F80
F80F80
F807C0
F807C0
F803C0
F803C0
F807C0
F807C0
F807C0
F80F80
F81F80
F8FF00
FFFE00
FFFC00
FFF800
FFE000
ENDCHAR
STARTCHAR $0043
ENCODING 67
SWIDTH 460 0
DWIDTH 23 0
BBX 18 35 2 0
BITMAP
03F000
0FFC00
1FFE00
3FFF00
3F3F80
7C0F80
7C07C0
7807C0
F803C0
F80000
F80000
F80000
F80000
F80000
F80000
F80000
F80000
F80000
F80000
F80000
F80000
F80000
F80000
F80000
F80000
F80000
F803C0
7807C0
7C07C0
7C0F80
3FBF80
3FFF00
1FFE00
0FFC00
01F000
ENDCHAR
STARTCHAR $0044
ENCODING 68
SWIDTH 460 0
DWIDTH 23 0
BBX 18 35 2 0
BITMAP
FFF000
FFFC00
FFFE00
FFFF00
F83F80
F80F80
F807C0
F807C0
F803C0
F803C0
F803C0
F803C0
F803C0
F803C0
F803C0
F803C0
F803C0
F803C0
F803C0
F803C0
F803C0
F803C0
F803C0
F803C0
F803C0
F803C0
F803C0
F807C0
F807C0
F80F80
F83F80
FFFF00
FFFE00
FFFC00
FFF000
ENDCHAR
STARTCHAR $0045
ENCODING 69
SWIDTH 460 0
DWIDTH 23 0
BBX 18 35 2 0
BITMAP
FFFFC0
FFFFC0
FFFFC0
FFFFC0
F80000
F80000
F80000
F80000
F80000
F80000
F80000
F80000
F80000
F80000
F80000
FFFC00
FFFC00
FFFC00
FFFC00
FFFC00
F80000
F80000
F80000
F80000
F80000
F80000
F80000
F80000
F80000
F80000
F80000
FFFFC0
FFFFC0
FFFFC0
FFFFC0
ENDCHAR
STARTCHAR $0046
ENCODING 70
SWIDTH 460 0
DWIDTH 23 0
BBX 18 35 2 0
BITMAP
FFFFC0
FFFFC0
FFFFC0
FFFFC0
F80000
F80000
F80000
F80000
F80000
F80000
F80000
F80000
F80000
F80000
F80000
FFFC00
FFFC00
FFFC00
FFFC00
FFFC00
F80000
F80000
F80000
F80000
F80000
F80000
F80000
F80000
F80000
F80000
F80000
F80000
F80000
F80000
F80000
ENDCHAR
STARTCHAR $0047
ENCODING 71
SWIDTH 460 0
DWIDTH 23 0
BBX 18 35 2 0
BITMAP
03F000
0FFC00
1FFE00
3FFF00
3F3F80
7C0F80
7807C0
7807C0
F803C0
F80000
F80000
F80000
F80000
F80000
F80000
F80000
F80000
F87FC0
F87FC0
F87FC0
F87FC0
F803C0
F803C0
F803C0
F803C0
F803C0
F803C0
7807C0
7C07C0
7C0FC0
3FBFC0
3FFFC0
1FFFC0
0FFFC0
03F3C0
ENDCHAR
STARTCHAR $0048
ENCODING 72
SWIDTH 460 0
DWIDTH 23 0
BBX 18 35 2 0
BITMAP
F803C0
F803C0
F803C0
F803C0
F803C0
F803C0
F803C0
F803C0
F803C0
F803C0
F803C0
F803C0
F803C0
F803C0
F803C0
FFFFC0
FFFFC0
FFFFC0
FFFFC0
FFFFC0
F803C0
F803C0
F803C0
F803C0
F803C0
F803C0
F803C0
F803C0
F803C0
F803C0
F803C0
F803C0
F803C0
F803C0
F803C0
ENDCHAR
STARTCHAR $0049
ENCODING 73
SWIDTH 260 0
DWIDTH 13 0
BBX 5 35 4 0
BITMAP
F8
F8
F8
F8
F8
F8
F8
F8
F8
F8
F8
F8
F8
F8
F8
F8
F8
F8
F8
F8
F8
F8
F8
F8
F8
F8
F8
F8
F8
F8
F8
F8
F8
F8
F8
ENDCHAR
STARTCHAR $004A
ENCODING 74
SWIDTH 460 0
DWIDTH 23 0
BBX 17 35 3 0
BITMAP
000780
000780
000780
000780
000780
000780
000780
000780
000780
000780
000780
000780
000780
000780
000780
000780
000780
000780
000780
000780
000780
000780
000780
000780
000780
000780
F00780
F00F80
F00F80
F81F00
7E7F00
7FFE00
3FFC00
1FF800
07E000
ENDCHAR
STARTCHAR $004B
ENCODING 75
SWIDTH 460 0
DWIDTH 23 0
BBX 17 35 3 0
BITMAP
F00F80
F01F00
F03F00
F03E00
F07C00
F07C00
F0F800
F1F800
F1F000
F3E000
F3E000
F7C000
FFC000
FF8000
FF0000
FF0000
FE0000
FE0000
FE0000
FF0000
FF0000
FF8000
FF8000
F7C000
F3E000
F3E000
F1F000
F1F800
F0F800
F07C00
F07C00
F03E00
F03F00
F01F00
F00F80
ENDCHAR
STARTCHAR $004C
ENCODING 76
SWIDTH 460 0
DWIDTH 23 0
BBX 18 35 2 0
BITMAP
F80000
F80000
F80000
F80000
F80000
F80000
F80000
F80000
F80000
F80000
F80000
F80000
F80000
F80000
F80000
F80000
F80000
F80000
F80000
F80000
F80000
F80000
F80000
F80000
F80000
F80000
F80000
F80000
F80000
F80000
F80000
FFFFC0
FFFFC0
FFFFC0
FFFFC0
ENDCHAR
STARTCHAR $004D
ENCODING 77
SWIDTH 460 0
DWIDTH 23 0
BBX 18 35 2 0
BITMAP
F807C0
F807C0
FC07C0
FC0FC0
FC0FC0
FE0FC0
FE1FC0
FE1FC0
FF1FC0
FF3FC0
FF3FC0
FFBFC0
FFFFC0
FFFFC0
FFFFC0
FBFBC0
FBFBC0
FBF3C0
F9F3C0
F9F3C0
F9E3C0
F8E3C0
F8E3C0
F8C3C0
F843C0
F843C0
F803C0
F803C0
F803C0
F803C0
F803C0
F803C0
F803C0
F803C0
F803C0
ENDCHAR
STARTCHAR $004E
ENCODING 78
SWIDTH 460 0
DWIDTH 23 0
BBX 18 35 2 0
BITMAP
F803C0
F803C0
FC03C0
FC03C0
FE03C0
FE03C0
FE03C0
FF03C0
FF03C0
FF83C0
FF83C0
FF83C0
FFC3C0
FFC3C0
FBC3C0
FBE3C0
F9E3C0
F9F3C0
F9F3C0
F8F3C0
F8FBC0
F8FBC0
F87FC0
F87FC0
F83FC0
F83FC0
F83FC0
F81FC0
F81FC0
F81FC0
F80FC0
F80FC0
F807C0
F807C0
F807C0
ENDCHAR
STARTCHAR $004F
ENCODING 79
SWIDTH 460 0
DWIDTH 23 0
BBX 18 35 2 0
BITMAP
01F000
0FFC00
1FFE00
3FFF00
3FBF80
7C0F80
7C07C0
7807C0
F803C0
F803C0
F803C0
F803C0
F803C0
F803C0
F803C0
F803C0
F803C0
F803C0
F803C0
F803C0
F803C0
F803C0
F803C0
F803C0
F803C0
F803C0
F803C0
7807C0
7C07C0
7C0F80
3F3F80
3FFF00
1FFE00
0FFC00
03F000
ENDCHAR
STARTCHAR $0050
ENCODING 80
SWIDTH 460 0
DWIDTH 23 0
BBX 18 35 2 0
BITMAP
FFE000
FFF800
FFFC00
FFFE00
F8FF00
F81F80
F80F80
F807C0
F807C0
F803C0
F803C0
F803C0
F807C0
F807C0
F80F80
F81F80
F8FF00
FFFE00
FFFC00
FFF800
FFE000
F80000
F80000
F80000
F80000
F80000
F80000
F80000
F80000
F80000
F80000
F80000
F80000
F80000
F80000
ENDCHAR
STARTCHAR $0051
ENCODING 81
SWIDTH 460 0
DWIDTH 23 0
BBX 18 35 2 0
BITMAP
03F000
0FFC00
1FFE00
3FFF00
3FBF80
7C0F80
7C07C0
7807C0
F803C0
F803C0
F803C0
F803C0
F803C0
F803C0
F803C0
F803C0
F803C0
F803C0
F803C0
F803C0
F803C0
F803C0
F803C0
F803C0
F803C0
F803C0
F803C0
7807C0
7C07C0
7C0F80
3F3F80
3FFF80
1FFF80
0FFFC0
03F7C0
ENDCHAR
STARTCHAR $0052
ENCODING 82
SWIDTH 460 0
DWIDTH 23 0
BBX 18 35 2 0
BITMAP
FFE000
FFF800
FFFC00
FFFE00
F8FF00
F81F80
F80F80
F807C0
F807C0
F803C0
F803C0
F803C0
F807C0
F807C0
F80F80
F81F80
F8FF00
FFFE00
FFFC00
FFF800
FFF800
F87800
F87C00
F83C00
F83C00
F83E00
F81E00
F81E00
F81F00
F80F00
F80F00
F80F80
F80780
F80780
F807C0
ENDCHAR
STARTCHAR $0053
ENCODING 83
SWIDTH 460 0
DWIDTH 23 0
BBX 18 35 2 0
BITMAP
03F000
0FFC00
1FFE00
3FFF00
3FBF80
7C0F80
7C07C0
7807C0
F803C0
780000
780000
7C0000
7E0000
3F0000
1F8000
0FC000
07E000
03F800
01FC00
00FE00
007F00
003F80
000F80
0007C0
0007C0
0003C0
F803C0
7807C0
7807C0
7C0F80
3F3F80
3FFF00
1FFE00
0FFC00
03F000
ENDCHAR
STARTCHAR $0054
ENCODING 84
SWIDTH 460 0
DWIDTH 23 0
BBX 18 35 2 0
BITMAP
FFFFC0
FFFFC0
FFFFC0
FFFFC0
01F000
01E000
01E000
01E000
01E000
01E000
01E000
01E000
01E000
01E000
01E000
01E000
01E000
01E000
01E000
01E000
01E000
01E000
01E000
01E000
01E000
01E000
01E000
01E000
01E000
01E000
01E000
01E000
01E000
01E000
01E000
ENDCHAR
STARTCHAR $0055
ENCODING 85
SWIDTH 460 0
DWIDTH 23 0
BBX 18 35 2 0
BITMAP
F803C0
F803C0
F803C0
F803C0
F803C0
F803C0
F803C0
F803C0
F803C0
F803C0
F803C0
F803C0
F803C0
F803C0
F803C0
F803C0
F803C0
F803C0
F803C0
F803C0
F803C0
F803C0
F803C0
F803C0
F803C0
F803C0
F803C0
7807C0
7C07C0
7C0F80
3F3F80
3FFF00
1FFE00
0FFC00
03F000
ENDCHAR
STARTCHAR $0056
ENCODING 86
SWIDTH 460 0
DWIDTH 23 0
BBX 17 35 3 0
BITMAP
F00780
F00F80
F00F80
F80F00
F80F00
780F00
781F00
781F00
7C1F00
7C1E00
3C1E00
3C1E00
3C3E00
3E3E00
3E3C00
1E3C00
1E3C00
1E3C00
1F7C00
1F7C00
0F7800
0F7800
0FF800
0FF800
0FF800
07F800
07F000
07F000
07F000
07F000
03F000
03E000
03E000
03E000
03E000
ENDCHAR
STARTCHAR $0057
ENCODING 87
SWIDTH 460 0
DWIDTH 23 0
BBX 17 35 3 0
BITMAP
F00780
F00780
F00F80
F00F80
F00F80
F00F80
F00F80
F00F80
F00F00
F80F00
F80F00
F80F00
F88F00
F88F00
F98F00
F98F00
79CF00
7BCF00
7BDF00
7BFF00
7BFF00
7FFF00
7FFF00
7FFF00
7FFE00
7FFE00
7FFE00
7FFE00
7F7E00
7F7E00
7E7E00
7E7E00
3E3E00
3C3E00
3C3E00
ENDCHAR
STARTCHAR $0058
ENCODING 88
SWIDTH 460 0
DWIDTH 23 0
BBX 17 35 3 0
BITMAP
F00F80
F80F80
F80F00
781F00
781F00
7C1E00
7C3E00
3C3E00
3E3C00
3E3C00
1E7C00
1F7C00
1F7800
0FF800
0FF800
0FF000
0FF000
07F000
0FF000
0FF000
0FF800
0FF800
1F7800
1F7C00
1E7C00
3E3C00
3E3C00
3C3E00
7C3E00
7C1E00
781F00
781F00
F80F00
F80F80
F00F80
ENDCHAR
STARTCHAR $0059
ENCODING 89
SWIDTH 460 0
DWIDTH 23 0
BBX 17 35 3 0
BITMAP
F00F80
F00F80
F81F00
F81F00
781E00
783E00
7C3E00
3C3C00
3C7C00
3E7C00
3EF800
1EF800
1EF000
1FF000
1FF000
0FE000
0FE000
0FE000
0FC000
07C000
07C000
0F8000
0F8000
0F0000
1F0000
1F0000
1E0000
3E0000
3E0000
3C0000
7C0000
780000
F80000
F80000
F00000
ENDCHAR
STARTCHAR $005A
ENCODING 90
SWIDTH 460 0
DWIDTH 23 0
BBX 18 35 2 0
BITMAP
FFFFC0
FFFFC0
FFFFC0
FFFFC0
0007C0
000780
000F80
000F80
001F00
001F00
003E00
003E00
007C00
007C00
00F800
00F800
01F000
01F000
03E000
03E000
07C000
07C000
0F8000
0F8000
1F0000
1F0000
3E0000
3E0000
3C0000
7C0000
7C0000
FFFFC0
FFFFC0
FFFFC0
FFFFC0
ENDCHAR
STARTCHAR $005B
ENCODING 91
SWIDTH 460 0
DWIDTH 23 0
BBX 10 35 6 0
BITMAP
FFC0
FFC0
FFC0
FFC0
FFC0
F800
F800
F800
F800
F800
F800
F800
F800
F800
F800
F800
F800
F800
F800
F800
F800
F800
F800
F800
F800
F800
F800
F800
F800
F800
FFC0
FFC0
FFC0
FFC0
FFC0
ENDCHAR
STARTCHAR $005C
ENCODING 92
SWIDTH 460 0
DWIDTH 23 0
BBX 17 35 3 0
BITMAP
F80000
F80000
7C0000
7C0000
3C0000
3E0000
3E0000
1E0000
1F0000
1F0000
0F0000
0F8000
0F8000
078000
07C000
07C000
03E000
03E000
03E000
01F000
01F000
01F000
00F800
00F800
007800
007C00
007C00
003C00
003E00
003E00
001E00
001F00
001F00
000F00
000F80
ENDCHAR
STARTCHAR $005D
ENCODING 93
SWIDTH 460 0
DWIDTH 23 0
BBX 10 35 6 0
BITMAP
FFC0
FFC0
FFC0
FFC0
7FC0
03C0
03C0
03C0
03C0
03C0
03C0
03C0
03C0
03C0
03C0
03C0
03C0
03C0
03C0
03C0
03C0
03C0
03C0
03C0
03C0
03C0
03C0
03C0
03C0
03C0
7FC0
FFC0
FFC0
FFC0
FFC0
ENDCHAR
STARTCHAR $005E
ENCODING 94
SWIDTH 460 0
DWIDTH 23 0
BBX 14 6 4 36
BITMAP
0FC0
1FE0
3FF0
3CF8
7878
F83C
ENDCHAR
STARTCHAR $005F
ENCODING 95
SWIDTH 460 0
DWIDTH 23 0
BBX 23 3 0 -3
BITMAP
FFFFFE
FFFFFE
FFFFFE
ENDCHAR
STARTCHAR $0060
ENCODING 96
SWIDTH 460 0
DWIDTH 23 0
BBX 9 7 7 33
BITMAP
F800
7800
3C00
1E00
0E00
0F00
0780
ENDCHAR
STARTCHAR $0061
ENCODING 97
SWIDTH 500 0
DWIDTH 25 0
BBX 20 27 2 0
BITMAP
00E000
07FC00
0FFF00
1FFF00
3FFF80
3E0FC0
3C07C0
7C03C0
7C03C0
0003C0
0007C0
00FFC0
0FFFC0
1FFFC0
3FFFC0
7FFFC0
7C03C0
7803C0
F803C0
F803C0
F807C0
7C07C0
7F1FF0
3FFFF0
3FFFF0
1FFEF0
07F830
ENDCHAR
STARTCHAR $0062
ENCODING 98
SWIDTH 460 0
DWIDTH 23 0
BBX 18 35 2 0
BITMAP
F80000
F80000
F80000
F80000
F80000
F80000
F80000
F80000
F86000
FFFC00
FFFE00
FFFF00
FFFF80
FE0F80
FC07C0
F807C0
F803C0
F803C0
F803C0
F803C0
F803C0
F803C0
F803C0
F803C0
F803C0
F803C0
F803C0
F807C0
FC07C0
FC0F80
FFFF80
FFFF00
FFFE00
FFFC00
FBF000
ENDCHAR
STARTCHAR $0063
ENCODING 99
SWIDTH 460 0
DWIDTH 23 0
BBX 18 27 2 0
BITMAP
00C000
07F800
0FFE00
1FFF00
3FFF80
7E0F80
7C07C0
7807C0
F803C0
F80000
F80000
F80000
F80000
F80000
F80000
F80000
F80000
F80000
F803C0
F807C0
7807C0
7C0F80
7FFF80
3FFF00
1FFE00
0FFC00
03F000
ENDCHAR
STARTCHAR $0064
ENCODING 100
SWIDTH 460 0
DWIDTH 23 0
BBX 18 35 2 0
BITMAP
0003C0
0003C0
0003C0
0003C0
0003C0
0003C0
0003C0
0003C0
00C3C0
07FBC0
0FFFC0
1FFFC0
3FFFC0
7E0FC0
7C07C0
7807C0
F803C0
F803C0
F803C0
F803C0
F803C0
F803C0
F803C0
F803C0
F803C0
F803C0
F803C0
F807C0
7807C0
7C0FC0
7FFFC0
3FFFC0
1FFFC0
0FFFC0
03F3C0
ENDCHAR
STARTCHAR $0065
ENCODING 101
SWIDTH 460 0
DWIDTH 23 0
BBX 18 27 2 0
BITMAP
00E000
07FC00
0FFE00
3FFF00
3FFF80
7E0F80
7C07C0
7807C0
F803C0
F803C0
F803C0
FFFFC0
FFFFC0
FFFFC0
FFFFC0
FFFFC0
F80000
F80000
F80000
F80000
780700
7C0F80
7FBF80
3FFF00
1FFE00
0FFC00
03F000
ENDCHAR
STARTCHAR $0066
ENCODING 102
SWIDTH 460 0
DWIDTH 23 0
BBX 18 35 2 0
BITMAP
00FE00
01FF00
03FF80
07FFC0
07C7C0
0783C0
078000
078000
078000
078000
078000
078000
078000
FFFF00
FFFF00
FFFF00
FFFF00
078000
078000
078000
078000
078000
078000
078000
078000
078000
078000
078000
078000
078000
078000
078000
078000
078000
078000
ENDCHAR
STARTCHAR $0067
ENCODING 103
SWIDTH 460 0
DWIDTH 23 0
BBX 18 36 2 -9
BITMAP
00FFC0
07FFC0
0FFFC0
1FFFC0
3FFFC0
7E1F80
7C07C0
7807C0
F803C0
F803C0
F807C0
7807C0
7C0FC0
7F3F80
3FFF00
1FFF00
0FFC00
1FF800
1F0000
1E0000
1E0000
1E0000
1F8000
1FFE00
3FFF00
7FFF80
7FFFC0
7C07C0
F803C0
F803C0
7807C0
7FFFC0
7FFF80
3FFF80
1FFE00
07F800
ENDCHAR
STARTCHAR $0068
ENCODING 104
SWIDTH 460 0
DWIDTH 23 0
BBX 18 35 2 0
BITMAP
F80000
F80000
F80000
F80000
F80000
F80000
F80000
F80000
F8E000
FFFC00
FFFE00
FFFF00
FFFF80
FE0F80
FC07C0
F807C0
F803C0
F803C0
F803C0
F803C0
F803C0
F803C0
F803C0
F803C0
F803C0
F803C0
F803C0
F803C0
F803C0
F803C0
F803C0
F803C0
F803C0
F803C0
F803C0
ENDCHAR
STARTCHAR $0069
ENCODING 105
SWIDTH 260 0
DWIDTH 13 0
BBX 7 35 3 0
BITMAP
70
F8
F8
70
00
00
00
00
F8
F8
F8
F8
F8
F8
F8
F8
F8
F8
F8
F8
F8
F8
F8
F8
F8
F8
F8
F8
F8
F8
7E
7E
3E
1E
0E
ENDCHAR
STARTCHAR $006A
ENCODING 106
SWIDTH 460 0
DWIDTH 23 0
BBX 13 44 5 -9
BITMAP
0070
0078
0078
0070
0000
0000
0000
0000
00F8
00F8
00F8
00F8
00F8
00F8
00F8
00F8
00F8
00F8
00F8
00F8
00F8
00F8
00F8
00F8
00F8
00F8
00F8
00F8
00F8
00F8
00F8
00F8
00F8
00F8
00F8
00F8
00F8
F0F8
F0F8
FFF8
FFF0
7FE0
3FC0
0F00
ENDCHAR
STARTCHAR $006B
ENCODING 107
SWIDTH 460 0
DWIDTH 23 0
BBX 18 35 2 0
BITMAP
F80000
F80000
F80000
F80000
F80000
F80000
F80000
F80000
F807C0
F80F80
F80F80
F81F00
F81F00
F83E00
F87E00
F87C00
F8F800
F8F800
F9F000
F9F000
FBE000
FFE000
FFE000
FFE000
FFF000
FFF800
FFF800
FE7C00
FE7C00
FC3E00
F83F00
F81F00
F80F80
F80F80
F807C0
ENDCHAR
STARTCHAR $006C
ENCODING 108
SWIDTH 280 0
DWIDTH 14 0
BBX 9 35 2 0
BITMAP
F800
F800
F800
F800
F800
F800
F800
F800
F800
F800
F800
F800
F800
F800
F800
F800
F800
F800
F800
F800
F800
F800
F800
F800
F800
F800
F800
F800
F800
F800
7E00
7F80
3F80
1F80
0F80
ENDCHAR
STARTCHAR $006D
ENCODING 109
SWIDTH 720 0
DWIDTH 36 0
BBX 31 27 2 0
BITMAP
F8C00300
FFFC3FE0
FFFE7FF0
FFFFFFF8
FFFFFFFC
FE1FF07E
FC07E03E
F807C01E
F807C01E
F803C01E
F803C01E
F803C01E
F803C01E
F803C01E
F803C01E
F803C01E
F803C01E
F803C01E
F803C01E
F803C01E
F803C01E
F803C01E
F803C01E
F803C01E
F803C01E
F803C01E
F803C01E
ENDCHAR
STARTCHAR $006E
ENCODING 110
SWIDTH 460 0
DWIDTH 23 0
BBX 18 27 2 0
BITMAP
F8E000
FFFC00
FFFE00
FFFF00
FFFF80
FE0F80
FC07C0
F807C0
F803C0
F803C0
F803C0
F803C0
F803C0
F803C0
F803C0
F803C0
F803C0
F803C0
F803C0
F803C0
F803C0
F803C0
F803C0
F803C0
F803C0
F803C0
F803C0
ENDCHAR
STARTCHAR $006F
ENCODING 111
SWIDTH 460 0
DWIDTH 23 0
BBX 18 27 2 0
BITMAP
00E000
07FC00
0FFE00
3FFF00
3FFF80
7E0F80
7C07C0
7807C0
F803C0
F803C0
F803C0
F803C0
F803C0
F803C0
F803C0
F803C0
F803C0
F803C0
F803C0
F807C0
7807C0
7C0F80
7FFF80
3FFF00
1FFE00
0FFC00
03F000
ENDCHAR
STARTCHAR $0070
ENCODING 112
SWIDTH 460 0
DWIDTH 23 0
BBX 18 36 2 -9
BITMAP
F8E000
FFFC00
FFFE00
FFFF00
FFFF80
FE0F80
FC07C0
F807C0
F803C0
F803C0
F803C0
F803C0
F803C0
F803C0
F803C0
F803C0
F803C0
F803C0
F803C0
F807C0
F807C0
FC0F80
FFFF80
FFFF00
FFFE00
FFFC00
FBF000
F80000
F80000
F80000
F80000
F80000
F80000
F80000
F80000
F80000
ENDCHAR
STARTCHAR $0071
ENCODING 113
SWIDTH 460 0
DWIDTH 23 0
BBX 18 36 2 -9
BITMAP
00E3C0
07FBC0
0FFFC0
3FFFC0
3FFFC0
7E0FC0
7C07C0
7807C0
F803C0
F803C0
F803C0
F803C0
F803C0
F803C0
F803C0
F803C0
F803C0
F803C0
F803C0
F807C0
7807C0
7C0FC0
3FFFC0
3FFFC0
1FFFC0
0FFFC0
03F3C0
0003C0
0003C0
0003C0
0003C0
0003C0
0003C0
0003C0
0003C0
0003C0
ENDCHAR
STARTCHAR $0072
ENCODING 114
SWIDTH 360 0
DWIDTH 18 0
BBX 14 27 2 0
BITMAP
F8FC
FFFC
FFFC
FFFC
FFFC
FE7C
FC7C
F800
F800
F800
F800
F800
F800
F800
F800
F800
F800
F800
F800
F800
F800
F800
F800
F800
F800
F800
F800
ENDCHAR
STARTCHAR $0073
ENCODING 115
SWIDTH 400 0
DWIDTH 20 0
BBX 16 27 2 0
BITMAP
0080
0FF0
1FF8
3FFC
7FFE
7C3E
781F
F81F
F81F
F800
7C00
7F00
3FF0
3FF8
0FFC
03FE
003E
001F
F81F
F81F
F81F
7C1F
7FFE
3FFE
3FFC
1FF8
07E0
ENDCHAR
STARTCHAR $0074
ENCODING 116
SWIDTH 280 0
DWIDTH 14 0
BBX 11 35 1 0
BITMAP
3E00
3E00
3E00
3E00
3E00
3E00
3E00
3E00
FFE0
FFE0
FFE0
FFE0
FFE0
3E00
3E00
3E00
3E00
3E00
3E00
3E00
3E00
3E00
3E00
3E00
3E00
3E00
3E00
3E00
3E00
1E00
1F80
1FE0
0FE0
07E0
01E0
ENDCHAR
STARTCHAR $0075
ENCODING 117
SWIDTH 460 0
DWIDTH 23 0
BBX 18 27 2 0
BITMAP
F803C0
F803C0
F803C0
F803C0
F803C0
F803C0
F803C0
F803C0
F803C0
F803C0
F803C0
F803C0
F803C0
F803C0
F803C0
F803C0
F803C0
F803C0
F803C0
F807C0
7807C0
7C0FC0
3FFFC0
3FFFC0
1FFFC0
0FFFC0
03F3C0
ENDCHAR
STARTCHAR $0076
ENCODING 118
SWIDTH 460 0
DWIDTH 23 0
BBX 18 27 2 0
BITMAP
F803C0
7807C0
7807C0
780780
7C0780
7C0780
3C0F80
3C0F80
3C0F80
3E0F00
3E0F00
1E1F00
1E1F00
1E1F00
1F1E00
1F1E00
0F3E00
0F3E00
0F3E00
0FBC00
0FBC00
07FC00
07FC00
07FC00
07F800
07F800
03F800
ENDCHAR
STARTCHAR $0077
ENCODING 119
SWIDTH 720 0
DWIDTH 36 0
BBX 31 27 2 0
BITMAP
F803C01E
7807C01E
7807C03E
7807E03E
7C07E03E
7C07E03C
3C0FE03C
3C0FE07C
3C0FF07C
3E0FF07C
3E0FF078
1E1FF078
1E1FF0F8
1E1EF8F8
1F1EF8F8
1F1E78F0
1F3E78F0
0F3E79F0
0F3C7DF0
0FBC7DF0
0FBC3DE0
07FC3DE0
07FC3FE0
07F83FE0
07F83FE0
07F81FC0
07F81FC0
ENDCHAR
STARTCHAR $0078
ENCODING 120
SWIDTH 460 0
DWIDTH 23 0
BBX 18 27 2 0
BITMAP
F803C0
7807C0
7C0780
3C0F80
3E0F00
1E1F00
1F1E00
0F3E00
0FBC00
07FC00
07F800
03F800
03F000
01F000
01F000
03F000
03F800
07F800
07FC00
0FBC00
0F3E00
1F1E00
1E1F00
3E0F00
3C0F80
7C0780
7807C0
ENDCHAR
STARTCHAR $0079
ENCODING 121
SWIDTH 460 0
DWIDTH 23 0
BBX 17 36 3 -9
BITMAP
7C0F80
7C0F80
3C0F80
3C0F00
3C0F00
3E1F00
3E1F00
1E1F00
1E1E00
1E1E00
1F1E00
1F3E00
0F3E00
0F3C00
0F3C00
0FBC00
0FFC00
07FC00
07F800
07F800
07F800
07F800
03F800
03F800
03F000
03F000
03F000
01F000
01F000
01E000
23E000
7FE000
FFC000
FFC000
7F8000
1E0000
ENDCHAR
STARTCHAR $007A
ENCODING 122
SWIDTH 460 0
DWIDTH 23 0
BBX 18 27 2 0
BITMAP
FFFFC0
FFFFC0
FFFFC0
FFFFC0
FFFFC0
000FC0
001F80
001F00
003F00
007E00
007C00
00FC00
01F800
01F000
03E000
07E000
07C000
0F8000
1F8000
3F0000
3E0000
7E0000
FC0000
FFFFC0
FFFFC0
FFFFC0
FFFFC0
ENDCHAR
STARTCHAR $007B
ENCODING 123
SWIDTH 460 0
DWIDTH 23 0
BBX 12 40 5 -4
BITMAP
0070
00F0
03F0
03F0
07C0
0780
0F80
0F00
0F00
0F00
0F00
0F00
0F00
0F00
0F00
0F00
1F00
3E00
FC00
F800
F000
FC00
3E00
1F00
0F00
0F00
0F00
0F00
0F00
0F00
0F00
0F00
0F00
0F80
0780
07C0
07F0
03F0
01F0
0070
ENDCHAR
STARTCHAR $007C
ENCODING 124
SWIDTH 460 0
DWIDTH 23 0
BBX 4 44 9 -5
BITMAP
F0
F0
F0
F0
F0
F0
F0
F0
F0
F0
F0
F0
F0
F0
F0
F0
F0
F0
F0
F0
F0
F0
F0
F0
F0
F0
F0
F0
F0
F0
F0
F0
F0
F0
F0
F0
F0
F0
F0
F0
F0
F0
F0
F0
ENDCHAR
STARTCHAR $007D
ENCODING 125
SWIDTH 460 0
DWIDTH 23 0
BBX 12 40 5 -4
BITMAP
E000
F800
FC00
FE00
3E00
1F00
0F00
0F00
0F00
0F00
0F00
0F00
0F00
0F00
0F00
0F80
0780
07C0
03F0
00F0
00F0
03F0
07E0
0780
0F80
0F00
0F00
0F00
0F00
0F00
0F00
0F00
0F00
0F00
1F00
3F00
FE00
FC00
F800
F000
ENDCHAR
STARTCHAR $007E
ENCODING 126
SWIDTH 460 0
DWIDTH 23 0
BBX 19 6 2 11
BITMAP
F07F00
FFFF80
FFFFC0
7FFFE0
3FE3E0
060100
ENDCHAR
STARTCHAR $007F
ENCODING 127
SWIDTH 460 0
DWIDTH 23 0
BBX 0 0 0 0
BITMAP
ENDCHAR
STARTCHAR $0080
ENCODING 128
SWIDTH 460 0
DWIDTH 23 0
BBX 0 0 0 0
BITMAP
ENDCHAR
STARTCHAR $0081
ENCODING 129
SWIDTH 460 0
DWIDTH 23 0
BBX 0 0 0 0
BITMAP
ENDCHAR
STARTCHAR $0082
ENCODING 130
SWIDTH 460 0
DWIDTH 23 0
BBX 0 0 0 0
BITMAP
ENDCHAR
STARTCHAR $0083
ENCODING 131
SWIDTH 460 0
DWIDTH 23 0
BBX 0 0 0 0
BITMAP
ENDCHAR
STARTCHAR $0084
ENCODING 132
SWIDTH 460 0
DWIDTH 23 0
BBX 0 0 0 0
BITMAP
ENDCHAR
STARTCHAR $0085
ENCODING 133
SWIDTH 460 0
DWIDTH 23 0
BBX 0 0 0 0
BITMAP
ENDCHAR
STARTCHAR $0086
ENCODING 134
SWIDTH 460 0
DWIDTH 23 0
BBX 0 0 0 0
BITMAP
ENDCHAR
STARTCHAR $0087
ENCODING 135
SWIDTH 460 0
DWIDTH 23 0
BBX 0 0 0 0
BITMAP
ENDCHAR
STARTCHAR $0088
ENCODING 136
SWIDTH 460 0
DWIDTH 23 0
BBX 0 0 0 0
BITMAP
ENDCHAR
STARTCHAR $0089
ENCODING 137
SWIDTH 460 0
DWIDTH 23 0
BBX 0 0 0 0
BITMAP
ENDCHAR
STARTCHAR $008A
ENCODING 138
SWIDTH 460 0
DWIDTH 23 0
BBX 0 0 0 0
BITMAP
ENDCHAR
STARTCHAR $008B
ENCODING 139
SWIDTH 460 0
DWIDTH 23 0
BBX 0 0 0 0
BITMAP
ENDCHAR
STARTCHAR $008C
ENCODING 140
SWIDTH 460 0
DWIDTH 23 0
BBX 0 0 0 0
BITMAP
ENDCHAR
STARTCHAR $008D
ENCODING 141
SWIDTH 460 0
DWIDTH 23 0
BBX 0 0 0 0
BITMAP
ENDCHAR
STARTCHAR $008E
ENCODING 142
SWIDTH 460 0
DWIDTH 23 0
BBX 0 0 0 0
BITMAP
ENDCHAR
STARTCHAR $008F
ENCODING 143
SWIDTH 460 0
DWIDTH 23 0
BBX 0 0 0 0
BITMAP
ENDCHAR
STARTCHAR $0090
ENCODING 144
SWIDTH 460 0
DWIDTH 23 0
BBX 0 0 0 0
BITMAP
ENDCHAR
STARTCHAR $0091
ENCODING 145
SWIDTH 460 0
DWIDTH 23 0
BBX 0 0 0 0
BITMAP
ENDCHAR
STARTCHAR $0092
ENCODING 146
SWIDTH 460 0
DWIDTH 23 0
BBX 0 0 0 0
BITMAP
ENDCHAR
STARTCHAR $0093
ENCODING 147
SWIDTH 460 0
DWIDTH 23 0
BBX 0 0 0 0
BITMAP
ENDCHAR
STARTCHAR $0094
ENCODING 148
SWIDTH 460 0
DWIDTH 23 0
BBX 0 0 0 0
BITMAP
ENDCHAR
STARTCHAR $0095
ENCODING 149
SWIDTH 460 0
DWIDTH 23 0
BBX 0 0 0 0
BITMAP
ENDCHAR
STARTCHAR $0096
ENCODING 150
SWIDTH 460 0
DWIDTH 23 0
BBX 0 0 0 0
BITMAP
ENDCHAR
STARTCHAR $0097
ENCODING 151
SWIDTH 460 0
DWIDTH 23 0
BBX 0 0 0 0
BITMAP
ENDCHAR
STARTCHAR $0098
ENCODING 152
SWIDTH 460 0
DWIDTH 23 0
BBX 0 0 0 0
BITMAP
ENDCHAR
STARTCHAR $0099
ENCODING 153
SWIDTH 460 0
DWIDTH 23 0
BBX 0 0 0 0
BITMAP
ENDCHAR
STARTCHAR $009A
ENCODING 154
SWIDTH 460 0
DWIDTH 23 0
BBX 0 0 0 0
BITMAP
ENDCHAR
STARTCHAR $009B
ENCODING 155
SWIDTH 460 0
DWIDTH 23 0
BBX 0 0 0 0
BITMAP
ENDCHAR
STARTCHAR $009C
ENCODING 156
SWIDTH 460 0
DWIDTH 23 0
BBX 0 0 0 0
BITMAP
ENDCHAR
STARTCHAR $009D
ENCODING 157
SWIDTH 460 0
DWIDTH 23 0
BBX 0 0 0 0
BITMAP
ENDCHAR
STARTCHAR $009E
ENCODING 158
SWIDTH 460 0
DWIDTH 23 0
BBX 0 0 0 0
BITMAP
ENDCHAR
STARTCHAR $009F
ENCODING 159
SWIDTH 460 0
DWIDTH 23 0
BBX 0 0 0 0
BITMAP
ENDCHAR
STARTCHAR $00A0
ENCODING 160
SWIDTH 460 0
DWIDTH 23 0
BBX 0 0 0 0
BITMAP
ENDCHAR
STARTCHAR $00A1
ENCODING 161
SWIDTH 460 0
DWIDTH 23 0
BBX 0 0 0 0
BITMAP
ENDCHAR
STARTCHAR $00A2
ENCODING 162
SWIDTH 460 0
DWIDTH 23 0
BBX 0 0 0 0
BITMAP
ENDCHAR
STARTCHAR $00A3
ENCODING 163
SWIDTH 460 0
DWIDTH 23 0
BBX 18 35 2 0
BITMAP
01FC00
07FE00
0FFF00
0FFF80
1F8FC0
1F07C0
1E03C0
1E0000
1E0000
1E0000
1E0000
1E0000
1E0000
1E0000
1E0000
FFF800
FFF800
FFF800
FFF800
FFF800
1E0000
1E0000
1E0000
1E0000
1E0000
1E0000
1E0000
1E0000
1E0000
3E0000
7E0000
FFFFC0
FFFFC0
FFFFC0
FFFFC0
ENDCHAR
STARTCHAR $00A4
ENCODING 164
SWIDTH 460 0
DWIDTH 23 0
BBX 0 0 0 0
BITMAP
ENDCHAR
STARTCHAR $00A5
ENCODING 165
SWIDTH 460 0
DWIDTH 23 0
BBX 0 0 0 0
BITMAP
ENDCHAR
STARTCHAR $00A6
ENCODING 166
SWIDTH 460 0
DWIDTH 23 0
BBX 0 0 0 0
BITMAP
ENDCHAR
STARTCHAR $00A7
ENCODING 167
SWIDTH 820 0
DWIDTH 41 0
BBX 36 27 2 0
BITMAP
001F001F00
003E003E00
007E007E00
007C007C00
00FC00FC00
00FC00FC00
01FE01FE00
01FE01FE00
03FF03FF00
07FF87FF80
07CF87CF80
0F87CF87C0
0F87CF87C0
1F03FF03E0
1F03FF03E0
3E01FE01F0
7E01FE01F0
7E00FE00F0
FE00FE00F0
FE00FE00F0
FF01FF01F0
FF03FF03F0
EFEFEFEFE0
CFFFCFFFC0
C7FF87FFC0
83FF03FF00
80FC00FC00
ENDCHAR
STARTCHAR $00A8
ENCODING 168
SWIDTH 460 0
DWIDTH 23 0
BBX 0 0 0 0
BITMAP
ENDCHAR
STARTCHAR $00A9
ENCODING 169
SWIDTH 720 0
DWIDTH 36 0
BBX 31 35 2 0
BITMAP
001FF800
007FFE00
01FFFF80
03FFFFC0
07F81FE0
0FC007F0
1F8001F8
3F03C0F8
3E0FF07C
7C3FF87C
7C3FFC3E
787FFE3E
787C3E1E
F8F81E1E
F8F81F1E
F8001F1E
F8001F1E
F8001F1E
F8001F1E
F8F81F1E
F8F81F1E
78F81E1E
787C7E1E
7C7FFE3E
7C3FFC3E
3E1FF87C
3E07E0FC
1F0000F8
1F8003F0
0FE007F0
07FE7FE0
03FFFFC0
01FFFF00
007FFE00
000FF000
ENDCHAR
STARTCHAR $00AA
ENCODING 170
SWIDTH 460 0
DWIDTH 23 0
BBX 0 0 0 0
BITMAP
ENDCHAR
STARTCHAR $00AB
ENCODING 171
SWIDTH 460 0
DWIDTH 23 0
BBX 17 18 3 8
BITMAP
000080
010180
070380
0F0780
1F1F80
3E3F00
FC7E00
F8F800
F0F000
E0E000
F0F000
F8FC00
7C7E00
3E3F00
1F0F80
0F0780
030380
010180
ENDCHAR
STARTCHAR $00AC
ENCODING 172
SWIDTH 460 0
DWIDTH 23 0
BBX 0 0 0 0
BITMAP
ENDCHAR
STARTCHAR $00AD
ENCODING 173
SWIDTH 460 0
DWIDTH 23 0
BBX 0 0 0 0
BITMAP
ENDCHAR
STARTCHAR $00AE
ENCODING 174
SWIDTH 460 0
DWIDTH 23 0
BBX 0 0 0 0
BITMAP
ENDCHAR
STARTCHAR $00AF
ENCODING 175
SWIDTH 460 0
DWIDTH 23 0
BBX 0 0 0 0
BITMAP
ENDCHAR
STARTCHAR $00B0
ENCODING 176
SWIDTH 260 0
DWIDTH 13 0
BBX 7 8 3 32
BITMAP
38
FE
EE
C6
C6
FE
7C
38
ENDCHAR
STARTCHAR $00B1
ENCODING 177
SWIDTH 460 0
DWIDTH 23 0
BBX 0 0 0 0
BITMAP
ENDCHAR
STARTCHAR $00B2
ENCODING 178
SWIDTH 460 0
DWIDTH 23 0
BBX 0 0 0 0
BITMAP
ENDCHAR
STARTCHAR $00B3
ENCODING 179
SWIDTH 460 0
DWIDTH 23 0
BBX 0 0 0 0
BITMAP
ENDCHAR
STARTCHAR $00B4
ENCODING 180
SWIDTH 460 0
DWIDTH 23 0
BBX 0 0 0 0
BITMAP
ENDCHAR
STARTCHAR $00B5
ENCODING 181
SWIDTH 460 0
DWIDTH 23 0
BBX 18 34 2 -7
BITMAP
F803C0
F803C0
F803C0
F803C0
F803C0
F803C0
F803C0
F803C0
F803C0
F803C0
F803C0
F803C0
F803C0
F803C0
F803C0
F803C0
F803C0
F803C0
F803C0
F807C0
F807C0
FC0FC0
FFFFC0
FFFFC0
FFFFC0
FFFFC0
FBF3C0
F80000
F80000
F80000
F80000
F80000
F80000
F80000
ENDCHAR
STARTCHAR $00B6
ENCODING 182
SWIDTH 460 0
DWIDTH 23 0
BBX 0 0 0 0
BITMAP
ENDCHAR
STARTCHAR $00B7
ENCODING 183
SWIDTH 460 0
DWIDTH 23 0
BBX 0 0 0 0
BITMAP
ENDCHAR
STARTCHAR $00B8
ENCODING 184
SWIDTH 460 0
DWIDTH 23 0
BBX 0 0 0 0
BITMAP
ENDCHAR
STARTCHAR $00B9
ENCODING 185
SWIDTH 460 0
DWIDTH 23 0
BBX 0 0 0 0
BITMAP
ENDCHAR
STARTCHAR $00BA
ENCODING 186
SWIDTH 460 0
DWIDTH 23 0
BBX 0 0 0 0
BITMAP
ENDCHAR
STARTCHAR $00BB
ENCODING 187
SWIDTH 460 0
DWIDTH 23 0
BBX 17 18 3 8
BITMAP
008000
80C000
E0E000
F0F000
F8FC00
7C7E00
3F3F00
1F0F80
0F0780
030380
0F0780
1F0F80
3E3F00
7C7E00
F8F800
F0F000
C0E000
80C000
ENDCHAR
STARTCHAR $00BC
ENCODING 188
SWIDTH 460 0
DWIDTH 23 0
BBX 0 0 0 0
BITMAP
ENDCHAR
STARTCHAR $00BD
ENCODING 189
SWIDTH 460 0
DWIDTH 23 0
BBX 0 0 0 0
BITMAP
ENDCHAR
STARTCHAR $00BE
ENCODING 190
SWIDTH 460 0
DWIDTH 23 0
BBX 0 0 0 0
BITMAP
ENDCHAR
STARTCHAR $00BF
ENCODING 191
SWIDTH 460 0
DWIDTH 23 0
BBX 0 0 0 0
BITMAP
ENDCHAR
STARTCHAR $00C0
ENCODING 192
SWIDTH 460 0
DWIDTH 23 0
BBX 17 42 3 0
BITMAP
078000
03C000
01E000
01E000
00F000
007800
000000
03E000
03E000
03E000
07E000
07E000
07E000
07F000
07F000
0FF000
0FF000
0FF000
0FF800
0FF800
0F7800
1F7800
1F7800
1E7C00
1E7C00
1E3C00
3E3C00
3E3C00
3C3C00
3C3E00
3C3E00
7FFE00
7FFE00
7FFE00
7FFF00
781F00
780F00
F80F00
F80F00
F00F80
F00F80
F00780
ENDCHAR
STARTCHAR $00C1
ENCODING 193
SWIDTH 460 0
DWIDTH 23 0
BBX 17 42 3 0
BITMAP
00F000
01F000
01E000
03C000
078000
070000
000000
03E000
03E000
03E000
07E000
07E000
07E000
07F000
07F000
0FF000
0FF000
0FF000
0FF800
0FF800
0F7800
1F7800
1F7800
1E7C00
1E7C00
1E3C00
3E3C00
3E3C00
3C3C00
3C3E00
3C3E00
7FFE00
7FFE00
7FFE00
7FFF00
781F00
780F00
F80F00
F80F00
F00F80
F00F80
F00780
ENDCHAR
STARTCHAR $00C2
ENCODING 194
SWIDTH 460 0
DWIDTH 23 0
BBX 17 42 3 0
BITMAP
07E000
07F000
0FF000
1E7800
1C3C00
3C1C00
000000
03E000
03E000
03E000
07E000
07E000
07E000
07F000
07F000
0FF000
0FF000
0FF000
0FF800
0FF800
0F7800
1F7800
1F7800
1E7C00
1E7C00
1E3C00
3E3C00
3E3C00
3C3C00
3C3E00
3C3E00
7FFE00
7FFE00
7FFE00
7FFF00
781F00
780F00
F80F00
F80F00
F00F80
F00F80
F00780
ENDCHAR
STARTCHAR $00C3
ENCODING 195
SWIDTH 460 0
DWIDTH 23 0
BBX 0 0 0 0
BITMAP
ENDCHAR
STARTCHAR $00C4
ENCODING 196
SWIDTH 460 0
DWIDTH 23 0
BBX 17 42 3 0
BITMAP
0E7800
1F7800
1F7800
0E3000
000000
000000
000000
03E000
03E000
03E000
07E000
07E000
07E000
07F000
07F000
0FF000
0FF000
0FF000
0FF800
0FF800
0F7800
1F7800
1F7800
1E7C00
1E7C00
1E3C00
3E3C00
3E3C00
3C3C00
3C3E00
3C3E00
7FFE00
7FFE00
7FFE00
7FFF00
781F00
780F00
F80F00
F80F00
F00F80
F00F80
F00780
ENDCHAR
STARTCHAR $00C5
ENCODING 197
SWIDTH 460 0
DWIDTH 23 0
BBX 0 0 0 0
BITMAP
ENDCHAR
STARTCHAR $00C6
ENCODING 198
SWIDTH 460 0
DWIDTH 23 0
BBX 30 35 -4 0
BITMAP
0007FFFC
000FFFFC
000FFFFC
000FFFFC
001FFFFC
001FF000
003FF000
003FF000
003DF000
007DF000
007DF000
0079F000
00F9F000
00F9F000
00F1F000
01F1FFF0
01F1FFF0
01E1FFF0
03E1FFF0
03E1FFF0
07C1F000
07C1F000
07C1F000
0FFFF000
0FFFF000
0FFFF000
1FFFF000
1FFFF000
1E01F000
3E01F000
3E01FFFC
3C01FFFC
7C01FFFC
7C01FFFC
F801FFFC
ENDCHAR
STARTCHAR $00C7
ENCODING 199
SWIDTH 460 0
DWIDTH 23 0
BBX 0 0 0 0
BITMAP
ENDCHAR
STARTCHAR $00C8
ENCODING 200
SWIDTH 460 0
DWIDTH 23 0
BBX 18 42 2 0
BITMAP
03C000
01E000
00F000
00F000
007800
003C00
000000
FFFFC0
FFFFC0
FFFFC0
FFFFC0
F80000
F80000
F80000
F80000
F80000
F80000
F80000
F80000
F80000
F80000
F80000
FFFC00
FFFC00
FFFC00
FFFC00
FFFC00
F80000
F80000
F80000
F80000
F80000
F80000
F80000
F80000
F80000
F80000
F80000
FFFFC0
FFFFC0
FFFFC0
FFFFC0
ENDCHAR
STARTCHAR $00C9
ENCODING 201
SWIDTH 460 0
DWIDTH 23 0
BBX 18 42 2 0
BITMAP
007800
00F800
00F000
01E000
03C000
038000
000000
FFFFC0
FFFFC0
FFFFC0
FFFFC0
F80000
F80000
F80000
F80000
F80000
F80000
F80000
F80000
F80000
F80000
F80000
FFFC00
FFFC00
FFFC00
FFFC00
FFFC00
F80000
F80000
F80000
F80000
F80000
F80000
F80000
F80000
F80000
F80000
F80000
FFFFC0
FFFFC0
FFFFC0
FFFFC0
ENDCHAR
STARTCHAR $00CA
ENCODING 202
SWIDTH 460 0
DWIDTH 23 0
BBX 18 42 2 0
BITMAP
03F000
03F800
07F800
0F3C00
0E1E00
1E0E00
000000
FFFFC0
FFFFC0
FFFFC0
FFFFC0
F80000
F80000
F80000
F80000
F80000
F80000
F80000
F80000
F80000
F80000
F80000
FFFC00
FFFC00
FFFC00
FFFC00
FFFC00
F80000
F80000
F80000
F80000
F80000
F80000
F80000
F80000
F80000
F80000
F80000
FFFFC0
FFFFC0
FFFFC0
FFFFC0
ENDCHAR
STARTCHAR $00CB
ENCODING 203
SWIDTH 460 0
DWIDTH 23 0
BBX 18 42 2 0
BITMAP
073C00
0FBC00
0FBC00
071800
000000
000000
000000
FFFFC0
FFFFC0
FFFFC0
FFFFC0
F80000
F80000
F80000
F80000
F80000
F80000
F80000
F80000
F80000
F80000
F80000
FFFC00
FFFC00
FFFC00
FFFC00
FFFC00
F80000
F80000
F80000
F80000
F80000
F80000
F80000
F80000
F80000
F80000
F80000
FFFFC0
FFFFC0
FFFFC0
FFFFC0
ENDCHAR
STARTCHAR $00CC
ENCODING 204
SWIDTH 460 0
DWIDTH 23 0
BBX 8 42 8 0
BITMAP
F0
78
3C
3C
1E
0F
00
78
78
78
78
78
78
78
78
78
78
78
78
78
78
78
78
78
78
78
78
78
78
78
78
78
78
78
78
78
78
78
78
78
78
78
ENDCHAR
STARTCHAR $00CD
ENCODING 205
SWIDTH 460 0
DWIDTH 23 0
BBX 7 42 8 0
BITMAP
1E
3E
3C
78
F0
E0
00
78
78
78
78
78
78
78
78
78
78
78
78
78
78
78
78
78
78
78
78
78
78
78
78
78
78
78
78
78
78
78
78
78
78
78
ENDCHAR
STARTCHAR $00CE
ENCODING 206
SWIDTH 460 0
DWIDTH 23 0
BBX 12 42 5 0
BITMAP
1F80
1FC0
3FC0
79E0
70F0
F070
0000
0F00
0F00
0F00
0F00
0F00
0F00
0F00
0F00
0F00
0F00
0F00
0F00
0F00
0F00
0F00
0F00
0F00
0F00
0F00
0F00
0F00
0F00
0F00
0F00
0F00
0F00
0F00
0F00
0F00
0F00
0F00
0F00
0F00
0F00
0F00
ENDCHAR
STARTCHAR $00CF
ENCODING 207
SWIDTH 460 0
DWIDTH 23 0
BBX 10 42 6 0
BITMAP
73C0
FBC0
FBC0
7180
0000
0000
0000
1E00
1E00
1E00
1E00
1E00
1E00
1E00
1E00
1E00
1E00
1E00
1E00
1E00
1E00
1E00
1E00
1E00
1E00
1E00
1E00
1E00
1E00
1E00
1E00
1E00
1E00
1E00
1E00
1E00
1E00
1E00
1E00
1E00
1E00
1E00
ENDCHAR
STARTCHAR $00D0
ENCODING 208
SWIDTH 460 0
DWIDTH 23 0
BBX 0 0 0 0
BITMAP
ENDCHAR
STARTCHAR $00D1
ENCODING 209
SWIDTH 460 0
DWIDTH 23 0
BBX 0 0 0 0
BITMAP
ENDCHAR
STARTCHAR $00D2
ENCODING 210
SWIDTH 460 0
DWIDTH 23 0
BBX 18 42 2 0
BITMAP
03C000
01E000
00F000
00F000
007800
003C00
000000
01F000
0FFC00
1FFE00
3FFF00
3FBF80
7C0F80
7C07C0
7807C0
F803C0
F803C0
F803C0
F803C0
F803C0
F803C0
F803C0
F803C0
F803C0
F803C0
F803C0
F803C0
F803C0
F803C0
F803C0
F803C0
F803C0
F803C0
F803C0
7807C0
7C07C0
7C0F80
3F3F80
3FFF00
1FFE00
0FFC00
03F000
ENDCHAR
STARTCHAR $00D3
ENCODING 211
SWIDTH 460 0
DWIDTH 23 0
BBX 18 42 2 0
BITMAP
007800
00F800
00F000
01E000
03C000
038000
000000
01F000
0FFC00
1FFE00
3FFF00
3FBF80
7C0F80
7C07C0
7807C0
F803C0
F803C0
F803C0
F803C0
F803C0
F803C0
F803C0
F803C0
F803C0
F803C0
F803C0
F803C0
F803C0
F803C0
F803C0
F803C0
F803C0
F803C0
F803C0
7807C0
7C07C0
7C0F80
3F3F80
3FFF00
1FFE00
0FFC00
03F000
ENDCHAR
STARTCHAR $00D4
ENCODING 212
SWIDTH 460 0
DWIDTH 23 0
BBX 18 42 2 0
BITMAP
03F000
03F800
07F800
0F3C00
0E1E00
1E0E00
000000
01F000
0FFC00
1FFE00
3FFF00
3FBF80
7C0F80
7C07C0
7807C0
F803C0
F803C0
F803C0
F803C0
F803C0
F803C0
F803C0
F803C0
F803C0
F803C0
F803C0
F803C0
F803C0
F803C0
F803C0
F803C0
F803C0
F803C0
F803C0
7807C0
7C07C0
7C0F80
3F3F80
3FFF00
1FFE00
0FFC00
03F000
ENDCHAR
STARTCHAR $00D5
ENCODING 213
SWIDTH 460 0
DWIDTH 23 0
BBX 18 35 2 0
BITMAP
01F000
0FFC00
1FFE00
3FFF00
3FBF80
7C0F80
7C07C0
7807C0
F803C0
F803C0
F803C0
F803C0
F803C0
F803C0
F803C0
F803C0
F803C0
F803C0
F803C0
F803C0
F803C0
F803C0
F803C0
F803C0
F803C0
F803C0
F803C0
7807C0
7C07C0
7C0F80
3F3F80
3FFF00
1FFE00
0FFC00
03F000
ENDCHAR
STARTCHAR $00D6
ENCODING 214
SWIDTH 460 0
DWIDTH 23 0
BBX 18 42 2 0
BITMAP
073C00
0FBC00
0FBC00
071800
000000
000000
000000
01F000
0FFC00
1FFE00
3FFF00
3FBF80
7C0F80
7C07C0
7807C0
F803C0
F803C0
F803C0
F803C0
F803C0
F803C0
F803C0
F803C0
F803C0
F803C0
F803C0
F803C0
F803C0
F803C0
F803C0
F803C0
F803C0
F803C0
F803C0
7807C0
7C07C0
7C0F80
3F3F80
3FFF00
1FFE00
0FFC00
03F000
ENDCHAR
STARTCHAR $00D7
ENCODING 215
SWIDTH 460 0
DWIDTH 23 0
BBX 0 0 0 0
BITMAP
ENDCHAR
STARTCHAR $00D8
ENCODING 216
SWIDTH 460 0
DWIDTH 23 0
BBX 0 0 0 0
BITMAP
ENDCHAR
STARTCHAR $00D9
ENCODING 217
SWIDTH 460 0
DWIDTH 23 0
BBX 18 42 2 0
BITMAP
03C000
01E000
00F000
00F000
007800
003C00
000000
F803C0
F803C0
F803C0
F803C0
F803C0
F803C0
F803C0
F803C0
F803C0
F803C0
F803C0
F803C0
F803C0
F803C0
F803C0
F803C0
F803C0
F803C0
F803C0
F803C0
F803C0
F803C0
F803C0
F803C0
F803C0
F803C0
F803C0
7807C0
7C07C0
7C0F80
3F3F80
3FFF00
1FFE00
0FFC00
03F000
ENDCHAR
STARTCHAR $00DA
ENCODING 218
SWIDTH 460 0
DWIDTH 23 0
BBX 18 42 2 0
BITMAP
007800
00F800
00F000
01E000
03C000
038000
000000
F803C0
F803C0
F803C0
F803C0
F803C0
F803C0
F803C0
F803C0
F803C0
F803C0
F803C0
F803C0
F803C0
F803C0
F803C0
F803C0
F803C0
F803C0
F803C0
F803C0
F803C0
F803C0
F803C0
F803C0
F803C0
F803C0
F803C0
7807C0
7C07C0
7C0F80
3F3F80
3FFF00
1FFE00
0FFC00
03F000
ENDCHAR
STARTCHAR $00DB
ENCODING 219
SWIDTH 460 0
DWIDTH 23 0
BBX 18 42 2 0
BITMAP
03F000
03F800
07F800
0F3C00
0E1E00
1E0E00
000000
F803C0
F803C0
F803C0
F803C0
F803C0
F803C0
F803C0
F803C0
F803C0
F803C0
F803C0
F803C0
F803C0
F803C0
F803C0
F803C0
F803C0
F803C0
F803C0
F803C0
F803C0
F803C0
F803C0
F803C0
F803C0
F803C0
F803C0
7807C0
7C07C0
7C0F80
3F3F80
3FFF00
1FFE00
0FFC00
03F000
ENDCHAR
STARTCHAR $00DC
ENCODING 220
SWIDTH 460 0
DWIDTH 23 0
BBX 18 42 2 0
BITMAP
073C00
0FBC00
0FBC00
071800
000000
000000
000000
F803C0
F803C0
F803C0
F803C0
F803C0
F803C0
F803C0
F803C0
F803C0
F803C0
F803C0
F803C0
F803C0
F803C0
F803C0
F803C0
F803C0
F803C0
F803C0
F803C0
F803C0
F803C0
F803C0
F803C0
F803C0
F803C0
F803C0
7807C0
7C07C0
7C0F80
3F3F80
3FFF00
1FFE00
0FFC00
03F000
ENDCHAR
STARTCHAR $00DD
ENCODING 221
SWIDTH 460 0
DWIDTH 23 0
BBX 0 0 0 0
BITMAP
ENDCHAR
STARTCHAR $00DE
ENCODING 222
SWIDTH 460 0
DWIDTH 23 0
BBX 0 0 0 0
BITMAP
ENDCHAR
STARTCHAR $00DF
ENCODING 223
SWIDTH 460 0
DWIDTH 23 0
BBX 18 35 2 0
BITMAP
0FF000
1FF800
3FFC00
7FFE00
7C3E00
781F00
F81F00
F81F00
F81F00
F81F00
F87E00
F9FE00
F9FE00
F9FF00
F9FF80
F81F80
F80FC0
F807C0
F807C0
F803C0
F803C0
F803C0
F803C0
F803C0
F803C0
F803C0
F803C0
F807C0
F807C0
F80F80
F87F80
F9FF00
F9FE00
F9FC00
F9F000
ENDCHAR
STARTCHAR $00E0
ENCODING 224
SWIDTH 500 0
DWIDTH 25 0
BBX 20 35 2 0
BITMAP
03C000
03E000
01E000
00F000
007800
003800
000000
000000
00E000
07FC00
0FFF00
1FFF00
3FFF80
3E0FC0
3C07C0
7C03C0
7C03C0
0003C0
0007C0
00FFC0
0FFFC0
1FFFC0
3FFFC0
7FFFC0
7C03C0
7803C0
F803C0
F803C0
F807C0
7C07C0
7F1FF0
3FFFF0
3FFFF0
1FFEF0
07F830
ENDCHAR
STARTCHAR $00E1
ENCODING 225
SWIDTH 500 0
DWIDTH 25 0
BBX 20 35 2 0
BITMAP
007800
00F000
01E000
01C000
03C000
078000
000000
000000
00E000
07FC00
0FFF00
1FFF00
3FFF80
3E0FC0
3C07C0
7C03C0
7C03C0
0003C0
0007C0
00FFC0
0FFFC0
1FFFC0
3FFFC0
7FFFC0
7C03C0
7803C0
F803C0
F803C0
F807C0
7C07C0
7F1FF0
3FFFF0
3FFFF0
1FFEF0
07F830
ENDCHAR
STARTCHAR $00E2
ENCODING 226
SWIDTH 500 0
DWIDTH 25 0
BBX 20 35 2 0
BITMAP
03E000
07F000
0F7800
0E3800
1E3C00
3C1E00
000000
000000
00E000
07FC00
0FFF00
1FFF00
3FFF80
3E0FC0
3C07C0
7C03C0
7C03C0
0003C0
0007C0
00FFC0
0FFFC0
1FFFC0
3FFFC0
7FFFC0
7C03C0
7803C0
F803C0
F803C0
F807C0
7C07C0
7F1FF0
3FFFF0
3FFFF0
1FFEF0
07F830
ENDCHAR
STARTCHAR $00E3
ENCODING 227
SWIDTH 460 0
DWIDTH 23 0
BBX 0 0 0 0
BITMAP
ENDCHAR
STARTCHAR $00E4
ENCODING 228
SWIDTH 500 0
DWIDTH 25 0
BBX 20 34 2 0
BITMAP
073800
0F3C00
0FBC00
073C00
000000
000000
000000
00E000
07FC00
0FFF00
1FFF00
3FFF80
3E0FC0
3C07C0
7C03C0
7C03C0
0003C0
0007C0
00FFC0
0FFFC0
1FFFC0
3FFFC0
7FFFC0
7C03C0
7803C0
F803C0
F803C0
F807C0
7C07C0
7F1FF0
3FFFF0
3FFFF0
1FFEF0
07F830
ENDCHAR
STARTCHAR $00E5
ENCODING 229
SWIDTH 460 0
DWIDTH 23 0
BBX 0 0 0 0
BITMAP
ENDCHAR
STARTCHAR $00E6
ENCODING 230
SWIDTH 620 0
DWIDTH 31 0
BBX 27 27 2 0
BITMAP
01803000
0FF1FE00
1FFBFF00
3FFFFF80
7FFFFFC0
7C3F87C0
781F03E0
F81F03E0
001F03E0
001F03E0
001F03E0
01FFFFE0
1FFFFFE0
3FFFFFE0
7FFFFFE0
7FFFFFE0
7C1F0000
F81F0000
F81F0000
F81F03E0
F81F03E0
F83F83E0
7FFFFFC0
7FFFFFC0
3FFFFF80
1FF1FF00
0FC0FC00
ENDCHAR
STARTCHAR $00E7
ENCODING 231
SWIDTH 460 0
DWIDTH 23 0
BBX 18 33 2 -7
BITMAP
03F800
0FFE00
1FFF00
3FFF00
7F1F80
7C0FC0
7807C0
F803C0
F803C0
F80000
F80000
F80000
F80000
F80000
F80000
F80000
F80000
F803C0
F807C0
7807C0
7C0FC0
7F1F80
3FFF80
1FFF00
0FFE00
03F800
01E000
01E000
0FE000
0FE000
0FE000
0FE000
0FC000
ENDCHAR
STARTCHAR $00E8
ENCODING 232
SWIDTH 460 0
DWIDTH 23 0
BBX 18 35 2 0
BITMAP
03C000
03E000
01E000
00F000
007800
003800
000000
000000
00C000
07F800
0FFE00
1FFF00
3FFF80
7E0F80
7C07C0
7807C0
F803C0
F803C0
F803C0
FFFFC0
FFFFC0
FFFFC0
FFFFC0
FFFFC0
F80000
F80000
F80000
F80000
780700
7C0F80
7FBF80
3FFF00
1FFE00
0FFC00
03F000
ENDCHAR
STARTCHAR $00E9
ENCODING 233
SWIDTH 460 0
DWIDTH 23 0
BBX 18 35 2 0
BITMAP
007800
00F000
01E000
01C000
03C000
078000
000000
000000
00E000
07FC00
0FFE00
3FFF00
3FFF80
7E0F80
7C07C0
7807C0
F803C0
F803C0
F803C0
FFFFC0
FFFFC0
FFFFC0
FFFFC0
FFFFC0
F80000
F80000
F80000
F80000
780700
7C0F80
7FBF80
3FFF00
1FFE00
0FFC00
03F000
ENDCHAR
STARTCHAR $00EA
ENCODING 234
SWIDTH 460 0
DWIDTH 23 0
BBX 18 35 2 0
BITMAP
03F000
03F800
07F800
0F3C00
0E1E00
1E0E00
000000
000000
00E000
07FC00
0FFE00
3FFF00
3FFF80
7E0F80
7C07C0
7807C0
F803C0
F803C0
F803C0
FFFFC0
FFFFC0
FFFFC0
FFFFC0
FFFFC0
F80000
F80000
F80000
F80000
780700
7C0F80
7FBF80
3FFF00
1FFE00
0FFC00
03F000
ENDCHAR
STARTCHAR $00EB
ENCODING 235
SWIDTH 460 0
DWIDTH 23 0
BBX 18 34 2 0
BITMAP
073800
0F3C00
0FBC00
073C00
000000
000000
000000
00E000
07FC00
0FFE00
3FFF00
3FFF80
7E0F80
7C07C0
7807C0
F803C0
F803C0
F803C0
FFFFC0
FFFFC0
FFFFC0
FFFFC0
FFFFC0
F80000
F80000
F80000
F80000
780700
7C0F80
7FBF80
3FFF00
1FFE00
0FFC00
03F000
ENDCHAR
STARTCHAR $00EC
ENCODING 236
SWIDTH 260 0
DWIDTH 13 0
BBX 8 35 2 0
BITMAP
F0
78
3C
1C
1E
0F
00
00
7C
7C
7C
7C
7C
7C
7C
7C
7C
7C
7C
7C
7C
7C
7C
7C
7C
7C
7C
7C
7C
7C
3F
3F
1F
0F
07
ENDCHAR
STARTCHAR $00ED
ENCODING 237
SWIDTH 260 0
DWIDTH 13 0
BBX 7 35 3 0
BITMAP
1E
1E
3C
78
70
E0
00
00
F8
F8
F8
F8
F8
F8
F8
F8
F8
F8
F8
F8
F8
F8
F8
F8
F8
F8
F8
F8
F8
F8
7E
7E
3E
1E
0E
ENDCHAR
STARTCHAR $00EE
ENCODING 238
SWIDTH 260 0
DWIDTH 13 0
BBX 13 35 -1 0
BITMAP
0F80
1FC0
3DE0
38E0
78F0
F078
0000
0000
0F80
0F80
0F80
0F80
0F80
0F80
0F80
0F80
0F80
0F80
0F80
0F80
0F80
0F80
0F80
0F80
0F80
0F80
0F80
0F80
0F80
0F80
07E0
07E0
03E0
01E0
00E0
ENDCHAR
STARTCHAR $00EF
ENCODING 239
SWIDTH 260 0
DWIDTH 13 0
BBX 9 35 2 0
BITMAP
F780
F780
F780
E380
0000
0000
0000
0000
3C00
3C00
3C00
3C00
3C00
3C00
3C00
3C00
3C00
3C00
3C00
3C00
3C00
3C00
3C00
3C00
3C00
3C00
3C00
3C00
3C00
3E00
3F00
1F00
1F00
0F00
0300
ENDCHAR
STARTCHAR $00F0
ENCODING 240
SWIDTH 460 0
DWIDTH 23 0
BBX 0 0 0 0
BITMAP
ENDCHAR
STARTCHAR $00F1
ENCODING 241
SWIDTH 460 0
DWIDTH 23 0
BBX 0 0 0 0
BITMAP
ENDCHAR
STARTCHAR $00F2
ENCODING 242
SWIDTH 460 0
DWIDTH 23 0
BBX 18 42 2 0
BITMAP
07C000
03C000
01E000
01E000
00F000
007800
000000
000000
000000
000000
000000
000000
000000
000000
000000
00E000
07FC00
0FFE00
3FFF00
3FFF80
7E0F80
7C07C0
7807C0
F803C0
F803C0
F803C0
F803C0
F803C0
F803C0
F803C0
F803C0
F803C0
F803C0
F803C0
F807C0
7807C0
7C0F80
7FFF80
3FFF00
1FFE00
0FFC00
03F000
ENDCHAR
STARTCHAR $00F3
ENCODING 243
SWIDTH 460 0
DWIDTH 23 0
BBX 18 35 2 0
BITMAP
007800
00F000
01E000
01C000
03C000
078000
000000
000000
00E000
07FC00
0FFE00
3FFF00
3FFF80
7E0F80
7C07C0
7807C0
F803C0
F803C0
F803C0
F803C0
F803C0
F803C0
F803C0
F803C0
F803C0
F803C0
F803C0
F807C0
7807C0
7C0F80
7FFF80
3FFF00
1FFE00
0FFC00
03F000
ENDCHAR
STARTCHAR $00F4
ENCODING 244
SWIDTH 460 0
DWIDTH 23 0
BBX 18 35 2 0
BITMAP
03F000
03F800
07F800
0F3C00
0E1E00
1E0E00
000000
000000
00E000
07FC00
0FFE00
3FFF00
3FFF80
7E0F80
7C07C0
7807C0
F803C0
F803C0
F803C0
F803C0
F803C0
F803C0
F803C0
F803C0
F803C0
F803C0
F803C0
F807C0
7807C0
7C0F80
7FFF80
3FFF00
1FFE00
0FFC00
03F000
ENDCHAR
STARTCHAR $00F5
ENCODING 245
SWIDTH 460 0
DWIDTH 23 0
BBX 18 27 2 0
BITMAP
00E000
07FC00
0FFE00
3FFF00
3FFF80
7E0F80
7C07C0
7807C0
F803C0
F803C0
F803C0
F803C0
F803C0
F803C0
F803C0
F803C0
F803C0
F803C0
F803C0
F807C0
7807C0
7C0F80
7FFF80
3FFF00
1FFE00
0FFC00
03F000
ENDCHAR
STARTCHAR $00F6
ENCODING 246
SWIDTH 460 0
DWIDTH 23 0
BBX 18 34 2 0
BITMAP
073800
0F3C00
0FBC00
073C00
000000
000000
000000
00E000
07FC00
0FFE00
3FFF00
3FFF80
7E0F80
7C07C0
7807C0
F803C0
F803C0
F803C0
F803C0
F803C0
F803C0
F803C0
F803C0
F803C0
F803C0
F803C0
F807C0
7807C0
7C0F80
7FFF80
3FFF00
1FFE00
0FFC00
03F000
ENDCHAR
STARTCHAR $00F7
ENCODING 247
SWIDTH 440 0
DWIDTH 22 0
BBX 13 19 5 3
BITMAP
0F00
0F00
0F00
0600
0000
0000
0000
FFF8
FFF8
FFF8
FFF8
FFF8
0000
0000
0000
0600
0F00
0F00
0F00
ENDCHAR
STARTCHAR $00F8
ENCODING 248
SWIDTH 460 0
DWIDTH 23 0
BBX 18 35 2 0
BITMAP
07FFC0
0FFF80
1FFF80
3FFF80
7E1F80
7C1FC0
781FC0
F81FC0
F83FC0
F83FC0
F83FC0
F87FC0
F87BC0
F8FBC0
F8FBC0
F8F3C0
F9F3C0
F9E3C0
F9E3C0
FBE3C0
FBC3C0
FFC3C0
FFC3C0
FF83C0
FF83C0
FF03C0
FF03C0
FF07C0
7E07C0
7E0F80
3FFF80
3FFF00
7FFE00
7FFC00
7BF000
ENDCHAR
STARTCHAR $00F9
ENCODING 249
SWIDTH 460 0
DWIDTH 23 0
BBX 18 35 2 0
BITMAP
03C000
03E000
01E000
00F000
007800
003800
000000
000000
F803C0
F803C0
F803C0
F803C0
F803C0
F803C0
F803C0
F803C0
F803C0
F803C0
F803C0
F803C0
F803C0
F803C0
F803C0
F803C0
F803C0
F803C0
F803C0
F807C0
7807C0
7C0FC0
7FFFC0
3FFFC0
1FFFC0
0FFFC0
03F3C0
ENDCHAR
STARTCHAR $00FA
ENCODING 250
SWIDTH 460 0
DWIDTH 23 0
BBX 18 35 2 0
BITMAP
007800
00F000
01E000
01C000
03C000
078000
000000
000000
F803C0
F803C0
F803C0
F803C0
F803C0
F803C0
F803C0
F803C0
F803C0
F803C0
F803C0
F803C0
F803C0
F803C0
F803C0
F803C0
F803C0
F803C0
F803C0
F807C0
7807C0
7C0FC0
7FFFC0
3FFFC0
1FFFC0
0FFFC0
03F3C0
ENDCHAR
STARTCHAR $00FB
ENCODING 251
SWIDTH 460 0
DWIDTH 23 0
BBX 18 35 2 0
BITMAP
03F000
03F800
07F800
0F3C00
0E1E00
1E0E00
000000
000000
F803C0
F803C0
F803C0
F803C0
F803C0
F803C0
F803C0
F803C0
F803C0
F803C0
F803C0
F803C0
F803C0
F803C0
F803C0
F803C0
F803C0
F803C0
F803C0
F807C0
7807C0
7C0FC0
7FFFC0
3FFFC0
1FFFC0
0FFFC0
03F3C0
ENDCHAR
STARTCHAR $00FC
ENCODING 252
SWIDTH 460 0
DWIDTH 23 0
BBX 18 34 2 0
BITMAP
073800
0F3C00
0FBC00
073C00
000000
000000
000000
F803C0
F803C0
F803C0
F803C0
F803C0
F803C0
F803C0
F803C0
F803C0
F803C0
F803C0
F803C0
F803C0
F803C0
F803C0
F803C0
F803C0
F803C0
F803C0
F807C0
7807C0
7C0FC0
7FFFC0
3FFFC0
1FFFC0
0FFFC0
03F3C0
ENDCHAR
STARTCHAR $00FD
ENCODING 253
SWIDTH 460 0
DWIDTH 23 0
BBX 0 0 0 0
BITMAP
ENDCHAR
STARTCHAR $00FE
ENCODING 254
SWIDTH 460 0
DWIDTH 23 0
BBX 0 0 0 0
BITMAP
ENDCHAR
STARTCHAR $00FF
ENCODING 255
SWIDTH 460 0
DWIDTH 23 0
BBX 0 0 0 0
BITMAP
ENDCHAR
STARTCHAR $0100
ENCODING 256
SWIDTH 460 0
DWIDTH 23 0
BBX 0 0 0 0
BITMAP
ENDCHAR
STARTCHAR $0101
ENCODING 257
SWIDTH 460 0
DWIDTH 23 0
BBX 0 0 0 0
BITMAP
ENDCHAR
STARTCHAR $0102
ENCODING 258
SWIDTH 460 0
DWIDTH 23 0
BBX 0 0 0 0
BITMAP
ENDCHAR
STARTCHAR $0103
ENCODING 259
SWIDTH 460 0
DWIDTH 23 0
BBX 0 0 0 0
BITMAP
ENDCHAR
STARTCHAR $0104
ENCODING 260
SWIDTH 460 0
DWIDTH 23 0
BBX 0 0 0 0
BITMAP
ENDCHAR
STARTCHAR $0105
ENCODING 261
SWIDTH 460 0
DWIDTH 23 0
BBX 0 0 0 0
BITMAP
ENDCHAR
STARTCHAR $0106
ENCODING 262
SWIDTH 460 0
DWIDTH 23 0
BBX 0 0 0 0
BITMAP
ENDCHAR
STARTCHAR $0107
ENCODING 263
SWIDTH 460 0
DWIDTH 23 0
BBX 0 0 0 0
BITMAP
ENDCHAR
STARTCHAR $0108
ENCODING 264
SWIDTH 460 0
DWIDTH 23 0
BBX 0 0 0 0
BITMAP
ENDCHAR
STARTCHAR $0109
ENCODING 265
SWIDTH 460 0
DWIDTH 23 0
BBX 0 0 0 0
BITMAP
ENDCHAR
STARTCHAR $010A
ENCODING 266
SWIDTH 460 0
DWIDTH 23 0
BBX 0 0 0 0
BITMAP
ENDCHAR
STARTCHAR $010B
ENCODING 267
SWIDTH 460 0
DWIDTH 23 0
BBX 0 0 0 0
BITMAP
ENDCHAR
STARTCHAR $010C
ENCODING 268
SWIDTH 460 0
DWIDTH 23 0
BBX 0 0 0 0
BITMAP
ENDCHAR
STARTCHAR $010D
ENCODING 269
SWIDTH 460 0
DWIDTH 23 0
BBX 0 0 0 0
BITMAP
ENDCHAR
STARTCHAR $010E
ENCODING 270
SWIDTH 460 0
DWIDTH 23 0
BBX 0 0 0 0
BITMAP
ENDCHAR
STARTCHAR $010F
ENCODING 271
SWIDTH 460 0
DWIDTH 23 0
BBX 0 0 0 0
BITMAP
ENDCHAR
STARTCHAR $0110
ENCODING 272
SWIDTH 460 0
DWIDTH 23 0
BBX 0 0 0 0
BITMAP
ENDCHAR
STARTCHAR $0111
ENCODING 273
SWIDTH 460 0
DWIDTH 23 0
BBX 0 0 0 0
BITMAP
ENDCHAR
STARTCHAR $0112
ENCODING 274
SWIDTH 460 0
DWIDTH 23 0
BBX 0 0 0 0
BITMAP
ENDCHAR
STARTCHAR $0113
ENCODING 275
SWIDTH 460 0
DWIDTH 23 0
BBX 0 0 0 0
BITMAP
ENDCHAR
STARTCHAR $0114
ENCODING 276
SWIDTH 460 0
DWIDTH 23 0
BBX 0 0 0 0
BITMAP
ENDCHAR
STARTCHAR $0115
ENCODING 277
SWIDTH 460 0
DWIDTH 23 0
BBX 0 0 0 0
BITMAP
ENDCHAR
STARTCHAR $0116
ENCODING 278
SWIDTH 460 0
DWIDTH 23 0
BBX 0 0 0 0
BITMAP
ENDCHAR
STARTCHAR $0117
ENCODING 279
SWIDTH 460 0
DWIDTH 23 0
BBX 0 0 0 0
BITMAP
ENDCHAR
STARTCHAR $0118
ENCODING 280
SWIDTH 460 0
DWIDTH 23 0
BBX 0 0 0 0
BITMAP
ENDCHAR
STARTCHAR $0119
ENCODING 281
SWIDTH 460 0
DWIDTH 23 0
BBX 0 0 0 0
BITMAP
ENDCHAR
STARTCHAR $011A
ENCODING 282
SWIDTH 460 0
DWIDTH 23 0
BBX 0 0 0 0
BITMAP
ENDCHAR
STARTCHAR $011B
ENCODING 283
SWIDTH 460 0
DWIDTH 23 0
BBX 0 0 0 0
BITMAP
ENDCHAR
STARTCHAR $011C
ENCODING 284
SWIDTH 460 0
DWIDTH 23 0
BBX 0 0 0 0
BITMAP
ENDCHAR
STARTCHAR $011D
ENCODING 285
SWIDTH 460 0
DWIDTH 23 0
BBX 0 0 0 0
BITMAP
ENDCHAR
STARTCHAR $011E
ENCODING 286
SWIDTH 460 0
DWIDTH 23 0
BBX 0 0 0 0
BITMAP
ENDCHAR
STARTCHAR $011F
ENCODING 287
SWIDTH 460 0
DWIDTH 23 0
BBX 0 0 0 0
BITMAP
ENDCHAR
STARTCHAR $0120
ENCODING 288
SWIDTH 460 0
DWIDTH 23 0
BBX 0 0 0 0
BITMAP
ENDCHAR
STARTCHAR $0121
ENCODING 289
SWIDTH 460 0
DWIDTH 23 0
BBX 0 0 0 0
BITMAP
ENDCHAR
STARTCHAR $0122
ENCODING 290
SWIDTH 460 0
DWIDTH 23 0
BBX 0 0 0 0
BITMAP
ENDCHAR
STARTCHAR $0123
ENCODING 291
SWIDTH 460 0
DWIDTH 23 0
BBX 0 0 0 0
BITMAP
ENDCHAR
STARTCHAR $0124
ENCODING 292
SWIDTH 460 0
DWIDTH 23 0
BBX 0 0 0 0
BITMAP
ENDCHAR
STARTCHAR $0125
ENCODING 293
SWIDTH 460 0
DWIDTH 23 0
BBX 0 0 0 0
BITMAP
ENDCHAR
STARTCHAR $0126
ENCODING 294
SWIDTH 460 0
DWIDTH 23 0
BBX 0 0 0 0
BITMAP
ENDCHAR
STARTCHAR $0127
ENCODING 295
SWIDTH 460 0
DWIDTH 23 0
BBX 0 0 0 0
BITMAP
ENDCHAR
STARTCHAR $0128
ENCODING 296
SWIDTH 460 0
DWIDTH 23 0
BBX 0 0 0 0
BITMAP
ENDCHAR
STARTCHAR $0129
ENCODING 297
SWIDTH 460 0
DWIDTH 23 0
BBX 0 0 0 0
BITMAP
ENDCHAR
STARTCHAR $012A
ENCODING 298
SWIDTH 460 0
DWIDTH 23 0
BBX 0 0 0 0
BITMAP
ENDCHAR
STARTCHAR $012B
ENCODING 299
SWIDTH 460 0
DWIDTH 23 0
BBX 0 0 0 0
BITMAP
ENDCHAR
STARTCHAR $012C
ENCODING 300
SWIDTH 460 0
DWIDTH 23 0
BBX 0 0 0 0
BITMAP
ENDCHAR
STARTCHAR $012D
ENCODING 301
SWIDTH 460 0
DWIDTH 23 0
BBX 0 0 0 0
BITMAP
ENDCHAR
STARTCHAR $012E
ENCODING 302
SWIDTH 460 0
DWIDTH 23 0
BBX 0 0 0 0
BITMAP
ENDCHAR
STARTCHAR $012F
ENCODING 303
SWIDTH 460 0
DWIDTH 23 0
BBX 0 0 0 0
BITMAP
ENDCHAR
STARTCHAR $0130
ENCODING 304
SWIDTH 460 0
DWIDTH 23 0
BBX 0 0 0 0
BITMAP
ENDCHAR
STARTCHAR $0131
ENCODING 305
SWIDTH 460 0
DWIDTH 23 0
BBX 0 0 0 0
BITMAP
ENDCHAR
STARTCHAR $0132
ENCODING 306
SWIDTH 460 0
DWIDTH 23 0
BBX 0 0 0 0
BITMAP
ENDCHAR
STARTCHAR $0133
ENCODING 307
SWIDTH 460 0
DWIDTH 23 0
BBX 0 0 0 0
BITMAP
ENDCHAR
STARTCHAR $0134
ENCODING 308
SWIDTH 460 0
DWIDTH 23 0
BBX 0 0 0 0
BITMAP
ENDCHAR
STARTCHAR $0135
ENCODING 309
SWIDTH 460 0
DWIDTH 23 0
BBX 0 0 0 0
BITMAP
ENDCHAR
STARTCHAR $0136
ENCODING 310
SWIDTH 460 0
DWIDTH 23 0
BBX 0 0 0 0
BITMAP
ENDCHAR
STARTCHAR $0137
ENCODING 311
SWIDTH 460 0
DWIDTH 23 0
BBX 0 0 0 0
BITMAP
ENDCHAR
STARTCHAR $0138
ENCODING 312
SWIDTH 460 0
DWIDTH 23 0
BBX 0 0 0 0
BITMAP
ENDCHAR
STARTCHAR $0139
ENCODING 313
SWIDTH 460 0
DWIDTH 23 0
BBX 0 0 0 0
BITMAP
ENDCHAR
STARTCHAR $013A
ENCODING 314
SWIDTH 460 0
DWIDTH 23 0
BBX 0 0 0 0
BITMAP
ENDCHAR
STARTCHAR $013B
ENCODING 315
SWIDTH 460 0
DWIDTH 23 0
BBX 0 0 0 0
BITMAP
ENDCHAR
STARTCHAR $013C
ENCODING 316
SWIDTH 460 0
DWIDTH 23 0
BBX 0 0 0 0
BITMAP
ENDCHAR
STARTCHAR $013D
ENCODING 317
SWIDTH 460 0
DWIDTH 23 0
BBX 0 0 0 0
BITMAP
ENDCHAR
STARTCHAR $013E
ENCODING 318
SWIDTH 460 0
DWIDTH 23 0
BBX 0 0 0 0
BITMAP
ENDCHAR
STARTCHAR $013F
ENCODING 319
SWIDTH 460 0
DWIDTH 23 0
BBX 0 0 0 0
BITMAP
ENDCHAR
STARTCHAR $0140
ENCODING 320
SWIDTH 460 0
DWIDTH 23 0
BBX 0 0 0 0
BITMAP
ENDCHAR
STARTCHAR $0141
ENCODING 321
SWIDTH 460 0
DWIDTH 23 0
BBX 0 0 0 0
BITMAP
ENDCHAR
STARTCHAR $0142
ENCODING 322
SWIDTH 460 0
DWIDTH 23 0
BBX 0 0 0 0
BITMAP
ENDCHAR
STARTCHAR $0143
ENCODING 323
SWIDTH 460 0
DWIDTH 23 0
BBX 0 0 0 0
BITMAP
ENDCHAR
STARTCHAR $0144
ENCODING 324
SWIDTH 460 0
DWIDTH 23 0
BBX 0 0 0 0
BITMAP
ENDCHAR
STARTCHAR $0145
ENCODING 325
SWIDTH 460 0
DWIDTH 23 0
BBX 0 0 0 0
BITMAP
ENDCHAR
STARTCHAR $0146
ENCODING 326
SWIDTH 460 0
DWIDTH 23 0
BBX 0 0 0 0
BITMAP
ENDCHAR
STARTCHAR $0147
ENCODING 327
SWIDTH 460 0
DWIDTH 23 0
BBX 0 0 0 0
BITMAP
ENDCHAR
STARTCHAR $0148
ENCODING 328
SWIDTH 460 0
DWIDTH 23 0
BBX 0 0 0 0
BITMAP
ENDCHAR
STARTCHAR $0149
ENCODING 329
SWIDTH 460 0
DWIDTH 23 0
BBX 0 0 0 0
BITMAP
ENDCHAR
STARTCHAR $014A
ENCODING 330
SWIDTH 460 0
DWIDTH 23 0
BBX 0 0 0 0
BITMAP
ENDCHAR
STARTCHAR $014B
ENCODING 331
SWIDTH 460 0
DWIDTH 23 0
BBX 0 0 0 0
BITMAP
ENDCHAR
STARTCHAR $014C
ENCODING 332
SWIDTH 460 0
DWIDTH 23 0
BBX 0 0 0 0
BITMAP
ENDCHAR
STARTCHAR $014D
ENCODING 333
SWIDTH 460 0
DWIDTH 23 0
BBX 0 0 0 0
BITMAP
ENDCHAR
STARTCHAR $014E
ENCODING 334
SWIDTH 460 0
DWIDTH 23 0
BBX 0 0 0 0
BITMAP
ENDCHAR
STARTCHAR $014F
ENCODING 335
SWIDTH 460 0
DWIDTH 23 0
BBX 0 0 0 0
BITMAP
ENDCHAR
STARTCHAR $0150
ENCODING 336
SWIDTH 460 0
DWIDTH 23 0
BBX 0 0 0 0
BITMAP
ENDCHAR
STARTCHAR $0151
ENCODING 337
SWIDTH 460 0
DWIDTH 23 0
BBX 0 0 0 0
BITMAP
ENDCHAR
STARTCHAR $0152
ENCODING 338
SWIDTH 460 0
DWIDTH 23 0
BBX 26 35 -2 0
BITMAP
0F9FFFC0
1FFFFFC0
3FFFFFC0
7FFFFFC0
7FFFFFC0
FC7F0000
F83F0000
F83F0000
F83F0000
F83F0000
F83F0000
F83F0000
F83F0000
F83F0000
F83F0000
F83FFF00
F83FFF00
F83FFF00
F83FFF00
F83FFF00
F83F0000
F83F0000
F83F0000
F83F0000
F83F0000
F83F0000
F83F0000
F83F0000
F83F0000
FC7F0000
7FFFFFC0
7FFFFFC0
3FFFFFC0
1FFFFFC0
0FDFFFC0
ENDCHAR
STARTCHAR $0153
ENCODING 339
SWIDTH 620 0
DWIDTH 31 0
BBX 27 27 2 0
BITMAP
00803000
0FF1FE00
1FFBFF00
3FFFFF80
7FFFFFC0
7C3F87C0
F81F03E0
F81F03E0
F81F03E0
F81F03E0
F81F03E0
F81FFFE0
F81FFFE0
F81FFFE0
F81FFFE0
F81FFFE0
F81F0000
F81F0000
F81F0000
F81F03E0
F81F03E0
7C1F83E0
7FFFFFC0
3FFFFFC0
3FFFFF80
1FF9FF00
07E0FC00
ENDCHAR
STARTCHAR $0154
ENCODING 340
SWIDTH 460 0
DWIDTH 23 0
BBX 0 0 0 0
BITMAP
ENDCHAR
STARTCHAR $0155
ENCODING 341
SWIDTH 460 0
DWIDTH 23 0
BBX 0 0 0 0
BITMAP
ENDCHAR
STARTCHAR $0156
ENCODING 342
SWIDTH 460 0
DWIDTH 23 0
BBX 0 0 0 0
BITMAP
ENDCHAR
STARTCHAR $0157
ENCODING 343
SWIDTH 460 0
DWIDTH 23 0
BBX 0 0 0 0
BITMAP
ENDCHAR
STARTCHAR $0158
ENCODING 344
SWIDTH 460 0
DWIDTH 23 0
BBX 0 0 0 0
BITMAP
ENDCHAR
STARTCHAR $0159
ENCODING 345
SWIDTH 460 0
DWIDTH 23 0
BBX 0 0 0 0
BITMAP
ENDCHAR
STARTCHAR $015A
ENCODING 346
SWIDTH 460 0
DWIDTH 23 0
BBX 0 0 0 0
BITMAP
ENDCHAR
STARTCHAR $015B
ENCODING 347
SWIDTH 460 0
DWIDTH 23 0
BBX 0 0 0 0
BITMAP
ENDCHAR
STARTCHAR $015C
ENCODING 348
SWIDTH 460 0
DWIDTH 23 0
BBX 0 0 0 0
BITMAP
ENDCHAR
STARTCHAR $015D
ENCODING 349
SWIDTH 460 0
DWIDTH 23 0
BBX 0 0 0 0
BITMAP
ENDCHAR
STARTCHAR $015E
ENCODING 350
SWIDTH 460 0
DWIDTH 23 0
BBX 0 0 0 0
BITMAP
ENDCHAR
STARTCHAR $015F
ENCODING 351
SWIDTH 460 0
DWIDTH 23 0
BBX 0 0 0 0
BITMAP
ENDCHAR
STARTCHAR $0160
ENCODING 352
SWIDTH 460 0
DWIDTH 23 0
BBX 0 0 0 0
BITMAP
ENDCHAR
STARTCHAR $0161
ENCODING 353
SWIDTH 460 0
DWIDTH 23 0
BBX 0 0 0 0
BITMAP
ENDCHAR
STARTCHAR $0162
ENCODING 354
SWIDTH 460 0
DWIDTH 23 0
BBX 0 0 0 0
BITMAP
ENDCHAR
STARTCHAR $0163
ENCODING 355
SWIDTH 460 0
DWIDTH 23 0
BBX 0 0 0 0
BITMAP
ENDCHAR
STARTCHAR $0164
ENCODING 356
SWIDTH 460 0
DWIDTH 23 0
BBX 0 0 0 0
BITMAP
ENDCHAR
STARTCHAR $0165
ENCODING 357
SWIDTH 460 0
DWIDTH 23 0
BBX 0 0 0 0
BITMAP
ENDCHAR
STARTCHAR $0166
ENCODING 358
SWIDTH 460 0
DWIDTH 23 0
BBX 0 0 0 0
BITMAP
ENDCHAR
STARTCHAR $0167
ENCODING 359
SWIDTH 460 0
DWIDTH 23 0
BBX 0 0 0 0
BITMAP
ENDCHAR
STARTCHAR $0168
ENCODING 360
SWIDTH 460 0
DWIDTH 23 0
BBX 0 0 0 0
BITMAP
ENDCHAR
STARTCHAR $0169
ENCODING 361
SWIDTH 460 0
DWIDTH 23 0
BBX 0 0 0 0
BITMAP
ENDCHAR
STARTCHAR $016A
ENCODING 362
SWIDTH 460 0
DWIDTH 23 0
BBX 0 0 0 0
BITMAP
ENDCHAR
STARTCHAR $016B
ENCODING 363
SWIDTH 460 0
DWIDTH 23 0
BBX 0 0 0 0
BITMAP
ENDCHAR
STARTCHAR $016C
ENCODING 364
SWIDTH 460 0
DWIDTH 23 0
BBX 0 0 0 0
BITMAP
ENDCHAR
STARTCHAR $016D
ENCODING 365
SWIDTH 460 0
DWIDTH 23 0
BBX 0 0 0 0
BITMAP
ENDCHAR
STARTCHAR $016E
ENCODING 366
SWIDTH 460 0
DWIDTH 23 0
BBX 0 0 0 0
BITMAP
ENDCHAR
STARTCHAR $016F
ENCODING 367
SWIDTH 460 0
DWIDTH 23 0
BBX 0 0 0 0
BITMAP
ENDCHAR
STARTCHAR $0170
ENCODING 368
SWIDTH 460 0
DWIDTH 23 0
BBX 0 0 0 0
BITMAP
ENDCHAR
STARTCHAR $0171
ENCODING 369
SWIDTH 460 0
DWIDTH 23 0
BBX 0 0 0 0
BITMAP
ENDCHAR
STARTCHAR $0172
ENCODING 370
SWIDTH 460 0
DWIDTH 23 0
BBX 0 0 0 0
BITMAP
ENDCHAR
STARTCHAR $0173
ENCODING 371
SWIDTH 460 0
DWIDTH 23 0
BBX 0 0 0 0
BITMAP
ENDCHAR
STARTCHAR $0174
ENCODING 372
SWIDTH 460 0
DWIDTH 23 0
BBX 0 0 0 0
BITMAP
ENDCHAR
STARTCHAR $0175
ENCODING 373
SWIDTH 460 0
DWIDTH 23 0
BBX 0 0 0 0
BITMAP
ENDCHAR
STARTCHAR $0176
ENCODING 374
SWIDTH 460 0
DWIDTH 23 0
BBX 0 0 0 0
BITMAP
ENDCHAR
STARTCHAR $0177
ENCODING 375
SWIDTH 460 0
DWIDTH 23 0
BBX 0 0 0 0
BITMAP
ENDCHAR
STARTCHAR $0178
ENCODING 376
SWIDTH 460 0
DWIDTH 23 0
BBX 0 0 0 0
BITMAP
ENDCHAR
STARTCHAR $0179
ENCODING 377
SWIDTH 460 0
DWIDTH 23 0
BBX 0 0 0 0
BITMAP
ENDCHAR
STARTCHAR $017A
ENCODING 378
SWIDTH 460 0
DWIDTH 23 0
BBX 0 0 0 0
BITMAP
ENDCHAR
STARTCHAR $017B
ENCODING 379
SWIDTH 460 0
DWIDTH 23 0
BBX 0 0 0 0
BITMAP
ENDCHAR
STARTCHAR $017C
ENCODING 380
SWIDTH 460 0
DWIDTH 23 0
BBX 0 0 0 0
BITMAP
ENDCHAR
STARTCHAR $017D
ENCODING 381
SWIDTH 460 0
DWIDTH 23 0
BBX 0 0 0 0
BITMAP
ENDCHAR
STARTCHAR $017E
ENCODING 382
SWIDTH 460 0
DWIDTH 23 0
BBX 0 0 0 0
BITMAP
ENDCHAR
STARTCHAR $017F
ENCODING 383
SWIDTH 460 0
DWIDTH 23 0
BBX 0 0 0 0
BITMAP
ENDCHAR
STARTCHAR $0180
ENCODING 384
SWIDTH 460 0
DWIDTH 23 0
BBX 0 0 0 0
BITMAP
ENDCHAR
STARTCHAR $0181
ENCODING 385
SWIDTH 460 0
DWIDTH 23 0
BBX 0 0 0 0
BITMAP
ENDCHAR
STARTCHAR $0182
ENCODING 386
SWIDTH 460 0
DWIDTH 23 0
BBX 0 0 0 0
BITMAP
ENDCHAR
STARTCHAR $0183
ENCODING 387
SWIDTH 460 0
DWIDTH 23 0
BBX 0 0 0 0
BITMAP
ENDCHAR
STARTCHAR $0184
ENCODING 388
SWIDTH 460 0
DWIDTH 23 0
BBX 0 0 0 0
BITMAP
ENDCHAR
STARTCHAR $0185
ENCODING 389
SWIDTH 460 0
DWIDTH 23 0
BBX 0 0 0 0
BITMAP
ENDCHAR
STARTCHAR $0186
ENCODING 390
SWIDTH 460 0
DWIDTH 23 0
BBX 0 0 0 0
BITMAP
ENDCHAR
STARTCHAR $0187
ENCODING 391
SWIDTH 460 0
DWIDTH 23 0
BBX 0 0 0 0
BITMAP
ENDCHAR
STARTCHAR $0188
ENCODING 392
SWIDTH 460 0
DWIDTH 23 0
BBX 0 0 0 0
BITMAP
ENDCHAR
STARTCHAR $0189
ENCODING 393
SWIDTH 460 0
DWIDTH 23 0
BBX 0 0 0 0
BITMAP
ENDCHAR
STARTCHAR $018A
ENCODING 394
SWIDTH 460 0
DWIDTH 23 0
BBX 0 0 0 0
BITMAP
ENDCHAR
STARTCHAR $018B
ENCODING 395
SWIDTH 460 0
DWIDTH 23 0
BBX 0 0 0 0
BITMAP
ENDCHAR
STARTCHAR $018C
ENCODING 396
SWIDTH 460 0
DWIDTH 23 0
BBX 0 0 0 0
BITMAP
ENDCHAR
STARTCHAR $018D
ENCODING 397
SWIDTH 460 0
DWIDTH 23 0
BBX 0 0 0 0
BITMAP
ENDCHAR
STARTCHAR $018E
ENCODING 398
SWIDTH 460 0
DWIDTH 23 0
BBX 0 0 0 0
BITMAP
ENDCHAR
STARTCHAR $018F
ENCODING 399
SWIDTH 460 0
DWIDTH 23 0
BBX 0 0 0 0
BITMAP
ENDCHAR
STARTCHAR $0190
ENCODING 400
SWIDTH 460 0
DWIDTH 23 0
BBX 0 0 0 0
BITMAP
ENDCHAR
STARTCHAR $0191
ENCODING 401
SWIDTH 460 0
DWIDTH 23 0
BBX 0 0 0 0
BITMAP
ENDCHAR
STARTCHAR $0192
ENCODING 402
SWIDTH 460 0
DWIDTH 23 0
BBX 0 0 0 0
BITMAP
ENDCHAR
STARTCHAR $0193
ENCODING 403
SWIDTH 460 0
DWIDTH 23 0
BBX 0 0 0 0
BITMAP
ENDCHAR
STARTCHAR $0194
ENCODING 404
SWIDTH 460 0
DWIDTH 23 0
BBX 0 0 0 0
BITMAP
ENDCHAR
STARTCHAR $0195
ENCODING 405
SWIDTH 460 0
DWIDTH 23 0
BBX 0 0 0 0
BITMAP
ENDCHAR
STARTCHAR $0196
ENCODING 406
SWIDTH 460 0
DWIDTH 23 0
BBX 0 0 0 0
BITMAP
ENDCHAR
STARTCHAR $0197
ENCODING 407
SWIDTH 460 0
DWIDTH 23 0
BBX 0 0 0 0
BITMAP
ENDCHAR
STARTCHAR $0198
ENCODING 408
SWIDTH 460 0
DWIDTH 23 0
BBX 0 0 0 0
BITMAP
ENDCHAR
STARTCHAR $0199
ENCODING 409
SWIDTH 460 0
DWIDTH 23 0
BBX 0 0 0 0
BITMAP
ENDCHAR
STARTCHAR $019A
ENCODING 410
SWIDTH 460 0
DWIDTH 23 0
BBX 0 0 0 0
BITMAP
ENDCHAR
STARTCHAR $019B
ENCODING 411
SWIDTH 460 0
DWIDTH 23 0
BBX 0 0 0 0
BITMAP
ENDCHAR
STARTCHAR $019C
ENCODING 412
SWIDTH 460 0
DWIDTH 23 0
BBX 0 0 0 0
BITMAP
ENDCHAR
STARTCHAR $019D
ENCODING 413
SWIDTH 460 0
DWIDTH 23 0
BBX 0 0 0 0
BITMAP
ENDCHAR
STARTCHAR $019E
ENCODING 414
SWIDTH 460 0
DWIDTH 23 0
BBX 0 0 0 0
BITMAP
ENDCHAR
STARTCHAR $019F
ENCODING 415
SWIDTH 460 0
DWIDTH 23 0
BBX 0 0 0 0
BITMAP
ENDCHAR
STARTCHAR $01A0
ENCODING 416
SWIDTH 460 0
DWIDTH 23 0
BBX 0 0 0 0
BITMAP
ENDCHAR
STARTCHAR $01A1
ENCODING 417
SWIDTH 460 0
DWIDTH 23 0
BBX 0 0 0 0
BITMAP
ENDCHAR
STARTCHAR $01A2
ENCODING 418
SWIDTH 460 0
DWIDTH 23 0
BBX 0 0 0 0
BITMAP
ENDCHAR
STARTCHAR $01A3
ENCODING 419
SWIDTH 460 0
DWIDTH 23 0
BBX 0 0 0 0
BITMAP
ENDCHAR
STARTCHAR $01A4
ENCODING 420
SWIDTH 460 0
DWIDTH 23 0
BBX 0 0 0 0
BITMAP
ENDCHAR
STARTCHAR $01A5
ENCODING 421
SWIDTH 460 0
DWIDTH 23 0
BBX 0 0 0 0
BITMAP
ENDCHAR
STARTCHAR $01A6
ENCODING 422
SWIDTH 460 0
DWIDTH 23 0
BBX 0 0 0 0
BITMAP
ENDCHAR
STARTCHAR $01A7
ENCODING 423
SWIDTH 460 0
DWIDTH 23 0
BBX 0 0 0 0
BITMAP
ENDCHAR
STARTCHAR $01A8
ENCODING 424
SWIDTH 460 0
DWIDTH 23 0
BBX 0 0 0 0
BITMAP
ENDCHAR
STARTCHAR $01A9
ENCODING 425
SWIDTH 460 0
DWIDTH 23 0
BBX 0 0 0 0
BITMAP
ENDCHAR
STARTCHAR $01AA
ENCODING 426
SWIDTH 460 0
DWIDTH 23 0
BBX 0 0 0 0
BITMAP
ENDCHAR
STARTCHAR $01AB
ENCODING 427
SWIDTH 460 0
DWIDTH 23 0
BBX 0 0 0 0
BITMAP
ENDCHAR
STARTCHAR $01AC
ENCODING 428
SWIDTH 460 0
DWIDTH 23 0
BBX 0 0 0 0
BITMAP
ENDCHAR
STARTCHAR $01AD
ENCODING 429
SWIDTH 460 0
DWIDTH 23 0
BBX 0 0 0 0
BITMAP
ENDCHAR
STARTCHAR $01AE
ENCODING 430
SWIDTH 460 0
DWIDTH 23 0
BBX 0 0 0 0
BITMAP
ENDCHAR
STARTCHAR $01AF
ENCODING 431
SWIDTH 460 0
DWIDTH 23 0
BBX 0 0 0 0
BITMAP
ENDCHAR
STARTCHAR $01B0
ENCODING 432
SWIDTH 460 0
DWIDTH 23 0
BBX 0 0 0 0
BITMAP
ENDCHAR
STARTCHAR $01B1
ENCODING 433
SWIDTH 460 0
DWIDTH 23 0
BBX 0 0 0 0
BITMAP
ENDCHAR
STARTCHAR $01B2
ENCODING 434
SWIDTH 460 0
DWIDTH 23 0
BBX 0 0 0 0
BITMAP
ENDCHAR
STARTCHAR $01B3
ENCODING 435
SWIDTH 460 0
DWIDTH 23 0
BBX 0 0 0 0
BITMAP
ENDCHAR
STARTCHAR $01B4
ENCODING 436
SWIDTH 460 0
DWIDTH 23 0
BBX 0 0 0 0
BITMAP
ENDCHAR
STARTCHAR $01B5
ENCODING 437
SWIDTH 460 0
DWIDTH 23 0
BBX 0 0 0 0
BITMAP
ENDCHAR
STARTCHAR $01B6
ENCODING 438
SWIDTH 460 0
DWIDTH 23 0
BBX 0 0 0 0
BITMAP
ENDCHAR
STARTCHAR $01B7
ENCODING 439
SWIDTH 460 0
DWIDTH 23 0
BBX 0 0 0 0
BITMAP
ENDCHAR
STARTCHAR $01B8
ENCODING 440
SWIDTH 460 0
DWIDTH 23 0
BBX 0 0 0 0
BITMAP
ENDCHAR
STARTCHAR $01B9
ENCODING 441
SWIDTH 460 0
DWIDTH 23 0
BBX 0 0 0 0
BITMAP
ENDCHAR
STARTCHAR $01BA
ENCODING 442
SWIDTH 460 0
DWIDTH 23 0
BBX 0 0 0 0
BITMAP
ENDCHAR
STARTCHAR $01BB
ENCODING 443
SWIDTH 460 0
DWIDTH 23 0
BBX 0 0 0 0
BITMAP
ENDCHAR
STARTCHAR $01BC
ENCODING 444
SWIDTH 460 0
DWIDTH 23 0
BBX 0 0 0 0
BITMAP
ENDCHAR
STARTCHAR $01BD
ENCODING 445
SWIDTH 460 0
DWIDTH 23 0
BBX 0 0 0 0
BITMAP
ENDCHAR
STARTCHAR $01BE
ENCODING 446
SWIDTH 460 0
DWIDTH 23 0
BBX 0 0 0 0
BITMAP
ENDCHAR
STARTCHAR $01BF
ENCODING 447
SWIDTH 460 0
DWIDTH 23 0
BBX 0 0 0 0
BITMAP
ENDCHAR
STARTCHAR $01C0
ENCODING 448
SWIDTH 460 0
DWIDTH 23 0
BBX 0 0 0 0
BITMAP
ENDCHAR
STARTCHAR $01C1
ENCODING 449
SWIDTH 460 0
DWIDTH 23 0
BBX 0 0 0 0
BITMAP
ENDCHAR
STARTCHAR $01C2
ENCODING 450
SWIDTH 460 0
DWIDTH 23 0
BBX 0 0 0 0
BITMAP
ENDCHAR
STARTCHAR $01C3
ENCODING 451
SWIDTH 460 0
DWIDTH 23 0
BBX 0 0 0 0
BITMAP
ENDCHAR
STARTCHAR $01C4
ENCODING 452
SWIDTH 460 0
DWIDTH 23 0
BBX 0 0 0 0
BITMAP
ENDCHAR
STARTCHAR $01C5
ENCODING 453
SWIDTH 460 0
DWIDTH 23 0
BBX 0 0 0 0
BITMAP
ENDCHAR
STARTCHAR $01C6
ENCODING 454
SWIDTH 460 0
DWIDTH 23 0
BBX 0 0 0 0
BITMAP
ENDCHAR
STARTCHAR $01C7
ENCODING 455
SWIDTH 460 0
DWIDTH 23 0
BBX 0 0 0 0
BITMAP
ENDCHAR
STARTCHAR $01C8
ENCODING 456
SWIDTH 460 0
DWIDTH 23 0
BBX 0 0 0 0
BITMAP
ENDCHAR
STARTCHAR $01C9
ENCODING 457
SWIDTH 460 0
DWIDTH 23 0
BBX 0 0 0 0
BITMAP
ENDCHAR
STARTCHAR $01CA
ENCODING 458
SWIDTH 460 0
DWIDTH 23 0
BBX 0 0 0 0
BITMAP
ENDCHAR
STARTCHAR $01CB
ENCODING 459
SWIDTH 460 0
DWIDTH 23 0
BBX 0 0 0 0
BITMAP
ENDCHAR
STARTCHAR $01CC
ENCODING 460
SWIDTH 460 0
DWIDTH 23 0
BBX 0 0 0 0
BITMAP
ENDCHAR
STARTCHAR $01CD
ENCODING 461
SWIDTH 460 0
DWIDTH 23 0
BBX 0 0 0 0
BITMAP
ENDCHAR
STARTCHAR $01CE
ENCODING 462
SWIDTH 460 0
DWIDTH 23 0
BBX 0 0 0 0
BITMAP
ENDCHAR
STARTCHAR $01CF
ENCODING 463
SWIDTH 460 0
DWIDTH 23 0
BBX 0 0 0 0
BITMAP
ENDCHAR
STARTCHAR $01D0
ENCODING 464
SWIDTH 460 0
DWIDTH 23 0
BBX 0 0 0 0
BITMAP
ENDCHAR
STARTCHAR $01D1
ENCODING 465
SWIDTH 460 0
DWIDTH 23 0
BBX 0 0 0 0
BITMAP
ENDCHAR
STARTCHAR $01D2
ENCODING 466
SWIDTH 460 0
DWIDTH 23 0
BBX 0 0 0 0
BITMAP
ENDCHAR
STARTCHAR $01D3
ENCODING 467
SWIDTH 460 0
DWIDTH 23 0
BBX 0 0 0 0
BITMAP
ENDCHAR
STARTCHAR $01D4
ENCODING 468
SWIDTH 460 0
DWIDTH 23 0
BBX 0 0 0 0
BITMAP
ENDCHAR
STARTCHAR $01D5
ENCODING 469
SWIDTH 460 0
DWIDTH 23 0
BBX 0 0 0 0
BITMAP
ENDCHAR
STARTCHAR $01D6
ENCODING 470
SWIDTH 460 0
DWIDTH 23 0
BBX 0 0 0 0
BITMAP
ENDCHAR
STARTCHAR $01D7
ENCODING 471
SWIDTH 460 0
DWIDTH 23 0
BBX 0 0 0 0
BITMAP
ENDCHAR
STARTCHAR $01D8
ENCODING 472
SWIDTH 460 0
DWIDTH 23 0
BBX 0 0 0 0
BITMAP
ENDCHAR
STARTCHAR $01D9
ENCODING 473
SWIDTH 460 0
DWIDTH 23 0
BBX 0 0 0 0
BITMAP
ENDCHAR
STARTCHAR $01DA
ENCODING 474
SWIDTH 460 0
DWIDTH 23 0
BBX 0 0 0 0
BITMAP
ENDCHAR
STARTCHAR $01DB
ENCODING 475
SWIDTH 460 0
DWIDTH 23 0
BBX 0 0 0 0
BITMAP
ENDCHAR
STARTCHAR $01DC
ENCODING 476
SWIDTH 460 0
DWIDTH 23 0
BBX 0 0 0 0
BITMAP
ENDCHAR
STARTCHAR $01DD
ENCODING 477
SWIDTH 460 0
DWIDTH 23 0
BBX 0 0 0 0
BITMAP
ENDCHAR
STARTCHAR $01DE
ENCODING 478
SWIDTH 460 0
DWIDTH 23 0
BBX 0 0 0 0
BITMAP
ENDCHAR
STARTCHAR $01DF
ENCODING 479
SWIDTH 460 0
DWIDTH 23 0
BBX 0 0 0 0
BITMAP
ENDCHAR
STARTCHAR $01E0
ENCODING 480
SWIDTH 460 0
DWIDTH 23 0
BBX 0 0 0 0
BITMAP
ENDCHAR
STARTCHAR $01E1
ENCODING 481
SWIDTH 460 0
DWIDTH 23 0
BBX 0 0 0 0
BITMAP
ENDCHAR
STARTCHAR $01E2
ENCODING 482
SWIDTH 460 0
DWIDTH 23 0
BBX 0 0 0 0
BITMAP
ENDCHAR
STARTCHAR $01E3
ENCODING 483
SWIDTH 460 0
DWIDTH 23 0
BBX 0 0 0 0
BITMAP
ENDCHAR
STARTCHAR $01E4
ENCODING 484
SWIDTH 460 0
DWIDTH 23 0
BBX 0 0 0 0
BITMAP
ENDCHAR
STARTCHAR $01E5
ENCODING 485
SWIDTH 460 0
DWIDTH 23 0
BBX 0 0 0 0
BITMAP
ENDCHAR
STARTCHAR $01E6
ENCODING 486
SWIDTH 460 0
DWIDTH 23 0
BBX 0 0 0 0
BITMAP
ENDCHAR
STARTCHAR $01E7
ENCODING 487
SWIDTH 460 0
DWIDTH 23 0
BBX 0 0 0 0
BITMAP
ENDCHAR
STARTCHAR $01E8
ENCODING 488
SWIDTH 460 0
DWIDTH 23 0
BBX 0 0 0 0
BITMAP
ENDCHAR
STARTCHAR $01E9
ENCODING 489
SWIDTH 460 0
DWIDTH 23 0
BBX 0 0 0 0
BITMAP
ENDCHAR
STARTCHAR $01EA
ENCODING 490
SWIDTH 460 0
DWIDTH 23 0
BBX 0 0 0 0
BITMAP
ENDCHAR
STARTCHAR $01EB
ENCODING 491
SWIDTH 460 0
DWIDTH 23 0
BBX 0 0 0 0
BITMAP
ENDCHAR
STARTCHAR $01EC
ENCODING 492
SWIDTH 460 0
DWIDTH 23 0
BBX 0 0 0 0
BITMAP
ENDCHAR
STARTCHAR $01ED
ENCODING 493
SWIDTH 460 0
DWIDTH 23 0
BBX 0 0 0 0
BITMAP
ENDCHAR
STARTCHAR $01EE
ENCODING 494
SWIDTH 460 0
DWIDTH 23 0
BBX 0 0 0 0
BITMAP
ENDCHAR
STARTCHAR $01EF
ENCODING 495
SWIDTH 460 0
DWIDTH 23 0
BBX 0 0 0 0
BITMAP
ENDCHAR
STARTCHAR $01F0
ENCODING 496
SWIDTH 460 0
DWIDTH 23 0
BBX 0 0 0 0
BITMAP
ENDCHAR
STARTCHAR $01F1
ENCODING 497
SWIDTH 460 0
DWIDTH 23 0
BBX 0 0 0 0
BITMAP
ENDCHAR
STARTCHAR $01F2
ENCODING 498
SWIDTH 460 0
DWIDTH 23 0
BBX 0 0 0 0
BITMAP
ENDCHAR
STARTCHAR $01F3
ENCODING 499
SWIDTH 460 0
DWIDTH 23 0
BBX 0 0 0 0
BITMAP
ENDCHAR
STARTCHAR $01F4
ENCODING 500
SWIDTH 460 0
DWIDTH 23 0
BBX 0 0 0 0
BITMAP
ENDCHAR
STARTCHAR $01F5
ENCODING 501
SWIDTH 460 0
DWIDTH 23 0
BBX 0 0 0 0
BITMAP
ENDCHAR
STARTCHAR $01F6
ENCODING 502
SWIDTH 460 0
DWIDTH 23 0
BBX 0 0 0 0
BITMAP
ENDCHAR
STARTCHAR $01F7
ENCODING 503
SWIDTH 460 0
DWIDTH 23 0
BBX 0 0 0 0
BITMAP
ENDCHAR
STARTCHAR $01F8
ENCODING 504
SWIDTH 460 0
DWIDTH 23 0
BBX 0 0 0 0
BITMAP
ENDCHAR
STARTCHAR $01F9
ENCODING 505
SWIDTH 460 0
DWIDTH 23 0
BBX 0 0 0 0
BITMAP
ENDCHAR
STARTCHAR $01FA
ENCODING 506
SWIDTH 460 0
DWIDTH 23 0
BBX 0 0 0 0
BITMAP
ENDCHAR
STARTCHAR $01FB
ENCODING 507
SWIDTH 460 0
DWIDTH 23 0
BBX 0 0 0 0
BITMAP
ENDCHAR
STARTCHAR $01FC
ENCODING 508
SWIDTH 460 0
DWIDTH 23 0
BBX 0 0 0 0
BITMAP
ENDCHAR
STARTCHAR $01FD
ENCODING 509
SWIDTH 460 0
DWIDTH 23 0
BBX 0 0 0 0
BITMAP
ENDCHAR
STARTCHAR $01FE
ENCODING 510
SWIDTH 460 0
DWIDTH 23 0
BBX 0 0 0 0
BITMAP
ENDCHAR
STARTCHAR $01FF
ENCODING 511
SWIDTH 460 0
DWIDTH 23 0
BBX 0 0 0 0
BITMAP
ENDCHAR
STARTCHAR $0200
ENCODING 512
SWIDTH 460 0
DWIDTH 23 0
BBX 0 0 0 0
BITMAP
ENDCHAR
STARTCHAR $0201
ENCODING 513
SWIDTH 460 0
DWIDTH 23 0
BBX 0 0 0 0
BITMAP
ENDCHAR
STARTCHAR $0202
ENCODING 514
SWIDTH 460 0
DWIDTH 23 0
BBX 0 0 0 0
BITMAP
ENDCHAR
STARTCHAR $0203
ENCODING 515
SWIDTH 460 0
DWIDTH 23 0
BBX 0 0 0 0
BITMAP
ENDCHAR
STARTCHAR $0204
ENCODING 516
SWIDTH 460 0
DWIDTH 23 0
BBX 0 0 0 0
BITMAP
ENDCHAR
STARTCHAR $0205
ENCODING 517
SWIDTH 460 0
DWIDTH 23 0
BBX 0 0 0 0
BITMAP
ENDCHAR
STARTCHAR $0206
ENCODING 518
SWIDTH 460 0
DWIDTH 23 0
BBX 0 0 0 0
BITMAP
ENDCHAR
STARTCHAR $0207
ENCODING 519
SWIDTH 460 0
DWIDTH 23 0
BBX 0 0 0 0
BITMAP
ENDCHAR
STARTCHAR $0208
ENCODING 520
SWIDTH 460 0
DWIDTH 23 0
BBX 0 0 0 0
BITMAP
ENDCHAR
STARTCHAR $0209
ENCODING 521
SWIDTH 460 0
DWIDTH 23 0
BBX 0 0 0 0
BITMAP
ENDCHAR
STARTCHAR $020A
ENCODING 522
SWIDTH 460 0
DWIDTH 23 0
BBX 0 0 0 0
BITMAP
ENDCHAR
STARTCHAR $020B
ENCODING 523
SWIDTH 460 0
DWIDTH 23 0
BBX 0 0 0 0
BITMAP
ENDCHAR
STARTCHAR $020C
ENCODING 524
SWIDTH 460 0
DWIDTH 23 0
BBX 0 0 0 0
BITMAP
ENDCHAR
STARTCHAR $020D
ENCODING 525
SWIDTH 460 0
DWIDTH 23 0
BBX 0 0 0 0
BITMAP
ENDCHAR
STARTCHAR $020E
ENCODING 526
SWIDTH 460 0
DWIDTH 23 0
BBX 0 0 0 0
BITMAP
ENDCHAR
STARTCHAR $020F
ENCODING 527
SWIDTH 460 0
DWIDTH 23 0
BBX 0 0 0 0
BITMAP
ENDCHAR
STARTCHAR $0210
ENCODING 528
SWIDTH 460 0
DWIDTH 23 0
BBX 0 0 0 0
BITMAP
ENDCHAR
STARTCHAR $0211
ENCODING 529
SWIDTH 460 0
DWIDTH 23 0
BBX 0 0 0 0
BITMAP
ENDCHAR
STARTCHAR $0212
ENCODING 530
SWIDTH 460 0
DWIDTH 23 0
BBX 0 0 0 0
BITMAP
ENDCHAR
STARTCHAR $0213
ENCODING 531
SWIDTH 460 0
DWIDTH 23 0
BBX 0 0 0 0
BITMAP
ENDCHAR
STARTCHAR $0214
ENCODING 532
SWIDTH 460 0
DWIDTH 23 0
BBX 0 0 0 0
BITMAP
ENDCHAR
STARTCHAR $0215
ENCODING 533
SWIDTH 460 0
DWIDTH 23 0
BBX 0 0 0 0
BITMAP
ENDCHAR
STARTCHAR $0216
ENCODING 534
SWIDTH 460 0
DWIDTH 23 0
BBX 0 0 0 0
BITMAP
ENDCHAR
STARTCHAR $0217
ENCODING 535
SWIDTH 460 0
DWIDTH 23 0
BBX 0 0 0 0
BITMAP
ENDCHAR
STARTCHAR $0218
ENCODING 536
SWIDTH 460 0
DWIDTH 23 0
BBX 0 0 0 0
BITMAP
ENDCHAR
STARTCHAR $0219
ENCODING 537
SWIDTH 460 0
DWIDTH 23 0
BBX 0 0 0 0
BITMAP
ENDCHAR
STARTCHAR $021A
ENCODING 538
SWIDTH 460 0
DWIDTH 23 0
BBX 0 0 0 0
BITMAP
ENDCHAR
STARTCHAR $021B
ENCODING 539
SWIDTH 460 0
DWIDTH 23 0
BBX 0 0 0 0
BITMAP
ENDCHAR
STARTCHAR $021C
ENCODING 540
SWIDTH 460 0
DWIDTH 23 0
BBX 0 0 0 0
BITMAP
ENDCHAR
STARTCHAR $021D
ENCODING 541
SWIDTH 460 0
DWIDTH 23 0
BBX 0 0 0 0
BITMAP
ENDCHAR
STARTCHAR $021E
ENCODING 542
SWIDTH 460 0
DWIDTH 23 0
BBX 0 0 0 0
BITMAP
ENDCHAR
STARTCHAR $021F
ENCODING 543
SWIDTH 460 0
DWIDTH 23 0
BBX 0 0 0 0
BITMAP
ENDCHAR
STARTCHAR $20AC
ENCODING 8364
SWIDTH 540 0
DWIDTH 27 0
BBX 22 35 2 0
BITMAP
001F80
007FE0
00FFF0
01FFF8
03F9F8
03E07C
07C07C
07C03C
07803C
078000
078000
078000
3FFFF0
7FFFE0
7FFFE0
7FFFC0
078000
078000
078000
7FFF80
7FFF80
7FFF00
FFFF00
078000
078000
078000
07803C
07C03C
07C07C
03E07C
03FBF8
01FFF8
00FFF0
007FE0
001F00
ENDCHAR
STARTCHAR $2190
ENCODING 8592
SWIDTH 720 0
DWIDTH 36 0
BBX 32 25 2 0
BITMAP
000C0000
001E0000
003F0000
007F0000
00FE0000
01FC0000
03F80000
07F00000
0FE00000
1FC00000
3F800000
7FFFFFFF
FFFFFFFF
7FFFFFFF
3FFFFFFF
1F800000
0FC00000
07E00000
03F00000
01F80000
00FC0000
007E0000
003F0000
001E0000
000C0000
ENDCHAR
STARTCHAR $2191
ENCODING 8593
SWIDTH 620 0
DWIDTH 31 0
BBX 25 32 3 -3
BITMAP
00080000
001C0000
003E0000
007F0000
00FF8000
01FFC000
03FFE000
07FFF000
0FFFF800
1FBEFC00
3F3E7E00
7E3E3F00
FC3E1F80
F83E0F80
703E0700
203E0200
003E0000
003E0000
003E0000
003E0000
003E0000
003E0000
003E0000
003E0000
003E0000
003E0000
003E0000
003E0000
003E0000
003E0000
003E0000
003E0000
ENDCHAR
STARTCHAR $2192
ENCODING 8594
SWIDTH 720 0
DWIDTH 36 0
BBX 32 25 2 0
BITMAP
00003000
00007800
0000FC00
0000FE00
00007F00
00001F80
00000FC0
000007E0
000003F0
000001F8
000000FC
FFFFFFFE
FFFFFFFF
FFFFFFFE
FFFFFFFC
000001F8
000003F0
000007E0
00000FC0
00001F80
00003F00
00007E00
0000FC00
00007800
00003000
ENDCHAR
STARTCHAR $2193
ENCODING 8595
SWIDTH 620 0
DWIDTH 31 0
BBX 25 31 3 -3
BITMAP
003E0000
003E0000
003E0000
003E0000
003E0000
003E0000
003E0000
003E0000
003E0000
003E0000
003E0000
003E0000
003E0000
003E0000
003E0000
003E0000
303E0200
783E0700
FC3E0F80
7E3E1F80
3F3E3F00
1FBE7E00
0FFEFC00
07FFF800
03FFF000
01FFE000
00FFC000
007F8000
003F0000
001E0000
000C0000
ENDCHAR
STARTCHAR $2196
ENCODING 8598
SWIDTH 580 0
DWIDTH 29 0
BBX 24 23 2 0
BITMAP
FFFFE0
FFFFE0
FFFFE0
FFFFE0
FF0000
FF8000
FFC000
FFE000
FBF000
F9F800
F8FC00
F87E00
F83F00
F81F80
F80FC0
F807E0
F803F0
F801F8
0000FC
00007E
00003F
00001E
00000C
ENDCHAR
STARTCHAR $2197
ENCODING 8599
SWIDTH 580 0
DWIDTH 29 0
BBX 24 23 2 0
BITMAP
03FFFF
03FFFF
03FFFF
03FFFF
0000FF
0001FF
0003FF
0007EF
000FCF
001F8F
003F0F
007E0F
00FC0F
01F80F
03F00F
07E00F
0FC00F
1F800F
3F0000
7E0000
FC0000
780000
300000
ENDCHAR
STARTCHAR $2198
ENCODING 8600
SWIDTH 580 0
DWIDTH 29 0
BBX 23 24 3 0
BITMAP
200000
700000
F80000
FC0000
7E0000
3F0000
1F801E
0FC01E
07E01E
03F01E
01F81E
00FC1E
007E1E
003F1E
001F9E
000FDE
0007FE
0003FE
0001FE
0000FE
07FFFE
07FFFE
07FFFE
07FFFE
ENDCHAR
STARTCHAR $2199
ENCODING 8601
SWIDTH 580 0
DWIDTH 29 0
BBX 24 24 2 0
BITMAP
000004
00000E
00001F
00003F
00007E
0000FC
F801F8
F803F0
F807E0
F80FC0
F81F80
F83F00
F87E00
F8FC00
F9F800
FBF000
FFE000
FFC000
FF8000
FF0000
FFFFE0
FFFFE0
FFFFE0
FFFFE0
ENDCHAR
STARTCHAR $26DF
ENCODING 9951
SWIDTH 2660 0
DWIDTH 133 0
BBX 129 35 2 0
BITMAP
FFFFFFFFFFFFFFFFFFFFFFFFFF80000000
FFFFFFFFFFFFFFFFFFFFFFFFFF80000000
FFFFFFFFFFFFFFFFFFFFFFFFFF87FE0000
FFFFFFFFFFFFFFFFFFFFFFFFFF87FF8000
FFFFFFFFFFFFFFFFFFFFFFFFFF8FFFE000
FFFFFFFFFFFFFFFFFFFFFFFFFF8FFFFC00
FFFFFFFFFFFFFFFFFFFFFFFFFF8FFFFF00
FFFFFFFFFFFFFFFFFFFFFFFFFF8FFFFF00
FFFFFFFFFFFFFFFFFFFFFFFFFF8FFFFF00
FFFFFFFFFFFFFFFFFFFFFFFFFF8FFC0600
FFFFFFFFFFFFFFFFFFFFFFFFFF8FFC0600
FFFFFFFFFFFFFFFFFFFFFFFFFF8FFC0600
FFFFFFFFFFFFFFFFFFFFFFFFFF8FFC0600
FFFFFFFFFFFFFFFFFFFFFFFFFF8FFC0600
FFFFFFFFFFFFFFFFFFFFFFFFFF8FFC0600
FFFFFFFFFFFFFFFFFFFFFFFFFF8FFC0600
FFFFFFFFFFFFFFFFFFFFFFFFFF8FFC0600
FFFFFFFFFFFFFFFFFFFFFFFFFFEFFFFF80
FFFFFFFFFFFFFFFFFFFFFFFFFFEFFFFF80
FFFFFFFFFFFFFFFFFFFFFFFFFFEFFFFF80
FFFFFFFFFFFFFFFFFFFFFFFFFFEFFFFF80
FFFFFFFFFFFFFFFFFFFFFFFFFFEFFFFF80
FFFFFFFFFFFFFFFFFFFFFFFFFFE7FFFF00
FFFFFFFFFFFFFFFFFFFFFFFFFFEFFFFF00
FFFFFFFFFFFFFFFFFFFFFFFFFFCFFFFF80
E00000000000000000000000000FFFFF80
000780F00F00000000001F1E000FFFFF80
0008610420800000000020FFFFFFFC1F80
0017B2F24F40000000005E7FFFFFFBCF80
002FD5FA5FA000000000BF3FFFFFF7E780
002FC5FDBFA000000000BFBFFFFFF7F780
002FE5FDBFA000000000BFBFFFFFF7F700
000FC1FC3F80000000003F80000007F000
000FC0F81F00000000001F00000003E000
000380700E00000000000E00000001C000
ENDCHAR
STARTCHAR $2794
ENCODING 10132
SWIDTH 720 0
DWIDTH 36 0
BBX 32 25 2 0
BITMAP
00003000
00007800
0000FC00
0000FE00
00007F00
00001F80
00000FC0
000007E0
000003F0
000001F8
000000FC
FFFFFFFE
FFFFFFFF
FFFFFFFE
FFFFFFFC
000001F8
000003F0
000007E0
00000FC0
00001F80
00003F00
00007E00
0000FC00
00007800
00003000
ENDCHAR
STARTCHAR $463B
ENCODING 17979
SWIDTH 980 0
DWIDTH 49 0
BBX 45 16 2 0
BITMAP
0007FFC00000
003800400000
00E000300000
01C000080000
078000040000
1FFFFFE7F000
7FFFFFFFFFC0
7FFFFFFFFFE0
7FFFFFFFF9F0
F41FFFFFE658
7BCFFFFFCF10
17EFFFFFDFA0
07EFFFFFDF80
07E000001F80
07E000000F80
03C000000600
ENDCHAR
STARTCHAR E031
ENCODING 57393
SWIDTH 420 0
DWIDTH 21 0
BBX 15 29 3 0
BITMAP
0180
0100
0000
0000
0300
0700
0F80
0F80
0F80
0FC0
0FC0
0FC0
0FC0
1FC0
07C0
77C0
F3C0
FDC0
FDC0
FDC0
3CE0
08E0
1860
3070
7030
7038
6018
181E
0010
ENDCHAR
ENDFONT
